<svg width="120" height="40" viewBox="0 0 120 40" fill="none" xmlns="http://www.w3.org/2000/svg">
<rect y="0.00012207" width="120" height="40" rx="5" fill="#101119"/>
<path fill-rule="evenodd" clip-rule="evenodd" d="M23.7865 20.5805C23.8067 18.8841 24.6276 17.317 25.9618 16.4285C25.1163 15.1204 23.751 14.3207 22.2776 14.2708C20.7276 14.0945 19.2248 15.2756 18.435 15.2756C17.6298 15.2756 16.4136 14.2883 15.104 14.3175C13.3809 14.3778 11.8135 15.4134 10.9752 17.0454C9.18996 20.3938 10.5216 25.3148 12.2317 28.0214C13.0873 29.3468 14.0872 30.8272 15.3956 30.7747C16.676 30.7172 17.1542 29.8903 18.6997 29.8903C20.2309 29.8903 20.6795 30.7747 22.0145 30.7414C23.3884 30.7172 24.254 29.4101 25.0796 28.0722C25.6943 27.1279 26.1674 26.0841 26.4812 24.9797C24.8494 24.232 23.7884 22.4999 23.7865 20.5805Z" fill="white"/>
<path fill-rule="evenodd" clip-rule="evenodd" d="M21.2649 12.4907C22.014 11.5165 22.3831 10.2644 22.2937 9.00012C21.1492 9.13034 20.0921 9.7229 19.3328 10.6597C18.5831 11.584 18.2033 12.7933 18.2771 14.0211C19.4369 14.0341 20.5381 13.47 21.2649 12.4907Z" fill="white"/>
<path d="M37.3575 8.65779V7.95467H42.2666V8.65779H40.2084V14.5001H39.4157V8.65779H37.3575ZM44.3442 14.6152C44.0332 14.6152 43.7508 14.5566 43.4973 14.4394C43.2437 14.3201 43.0424 14.1486 42.8932 13.9248C42.7441 13.699 42.6695 13.4263 42.6695 13.1067C42.6695 12.8254 42.7249 12.5974 42.8357 12.4227C42.9465 12.2459 43.0946 12.1074 43.28 12.0072C43.4653 11.9071 43.6699 11.8325 43.8936 11.7835C44.1195 11.7324 44.3464 11.6919 44.5744 11.6621C44.8726 11.6237 45.1145 11.5949 45.2999 11.5758C45.4874 11.5545 45.6237 11.5193 45.7089 11.4703C45.7963 11.4213 45.84 11.3361 45.84 11.2146V11.189C45.84 10.8737 45.7537 10.6287 45.5811 10.454C45.4106 10.2792 45.1518 10.1919 44.8045 10.1919C44.4444 10.1919 44.1621 10.2707 43.9575 10.4284C43.753 10.5861 43.6092 10.7544 43.5261 10.9334L42.8101 10.6777C42.938 10.3794 43.1084 10.1471 43.3215 9.98095C43.5367 9.81262 43.7711 9.69543 44.0246 9.62938C44.2803 9.5612 44.5317 9.52711 44.7789 9.52711C44.9366 9.52711 45.1177 9.54629 45.3222 9.58464C45.5289 9.62086 45.7281 9.6965 45.9199 9.81156C46.1138 9.92661 46.2746 10.1003 46.4025 10.3325C46.5303 10.5648 46.5942 10.8758 46.5942 11.2657V14.5001H45.84V13.8353H45.8016C45.7505 13.9419 45.6653 14.0559 45.5459 14.1773C45.4266 14.2988 45.2679 14.4021 45.0697 14.4873C44.8716 14.5726 44.6298 14.6152 44.3442 14.6152ZM44.4593 13.9376C44.7576 13.9376 45.009 13.879 45.2136 13.7618C45.4202 13.6447 45.5758 13.4934 45.6802 13.308C45.7867 13.1226 45.84 12.9277 45.84 12.7231V12.0328C45.808 12.0711 45.7377 12.1063 45.629 12.1383C45.5225 12.1681 45.3989 12.1947 45.2583 12.2182C45.1198 12.2395 44.9845 12.2586 44.8524 12.2757C44.7224 12.2906 44.617 12.3034 44.536 12.314C44.34 12.3396 44.1567 12.3812 43.9863 12.4387C43.818 12.4941 43.6816 12.5782 43.5772 12.6912C43.4749 12.802 43.4238 12.9532 43.4238 13.145C43.4238 13.4071 43.5207 13.6052 43.7146 13.7395C43.9106 13.8716 44.1589 13.9376 44.4593 13.9376ZM45.1624 8.92626H44.536V8.23592C44.7597 8.22313 44.9174 8.19224 45.009 8.14323C45.1028 8.09423 45.1496 8.01859 45.1496 7.91631C45.1496 7.80126 45.0825 7.7171 44.9483 7.66383C44.8141 7.61056 44.6511 7.58393 44.4593 7.58393L44.4849 7.09813C44.9259 7.09813 45.2594 7.17484 45.4852 7.32825C45.7132 7.48166 45.8272 7.6862 45.8272 7.94188C45.8272 8.15921 45.7579 8.31795 45.6195 8.41809C45.481 8.51823 45.3286 8.58109 45.1624 8.60666V8.92626ZM48.1509 14.5001V9.59103H48.9052V14.5001H48.1509ZM48.5344 8.77285C48.3874 8.77285 48.2607 8.72278 48.1541 8.62264C48.0497 8.52249 47.9975 8.40211 47.9975 8.26149C47.9975 8.12086 48.0497 8.00048 48.1541 7.90033C48.2607 7.80019 48.3874 7.75012 48.5344 7.75012C48.6815 7.75012 48.8072 7.80019 48.9116 7.90033C49.0181 8.00048 49.0714 8.12086 49.0714 8.26149C49.0714 8.40211 49.0181 8.52249 48.9116 8.62264C48.8072 8.72278 48.6815 8.77285 48.5344 8.77285ZM57.1921 9.59103L55.3768 14.5001H54.6097L52.7944 9.59103H53.6126L54.9677 13.503H55.0188L56.3739 9.59103H57.1921ZM60.2501 14.6024C59.7771 14.6024 59.3691 14.498 59.0261 14.2892C58.6852 14.0782 58.422 13.7842 58.2366 13.4071C58.0534 13.0278 57.9618 12.5868 57.9618 12.0839C57.9618 11.5811 58.0534 11.1379 58.2366 10.7544C58.422 10.3687 58.6798 10.0683 59.0101 9.8531C59.3425 9.63578 59.7303 9.52711 60.1734 9.52711C60.4291 9.52711 60.6816 9.56972 60.9309 9.65495C61.1802 9.74018 61.4071 9.87867 61.6116 10.0704C61.8162 10.2601 61.9792 10.5115 62.1006 10.8247C62.2221 11.1379 62.2828 11.5236 62.2828 11.9817V12.3013H58.4987V11.6493H61.5158C61.5158 11.3723 61.4604 11.1251 61.3496 10.9078C61.2409 10.6905 61.0854 10.5189 60.883 10.3932C60.6827 10.2675 60.4462 10.2047 60.1734 10.2047C59.873 10.2047 59.6131 10.2792 59.3936 10.4284C59.1763 10.5754 59.009 10.7672 58.8918 11.0037C58.7746 11.2402 58.7161 11.4937 58.7161 11.7643V12.199C58.7161 12.5697 58.78 12.884 58.9078 13.1418C59.0378 13.3975 59.2178 13.5925 59.4479 13.7267C59.6781 13.8588 59.9455 13.9248 60.2501 13.9248C60.4483 13.9248 60.6273 13.8971 60.7871 13.8417C60.949 13.7842 61.0886 13.699 61.2058 13.5861C61.3229 13.471 61.4135 13.3282 61.4774 13.1578L62.2061 13.3623C62.1294 13.6095 62.0005 13.8268 61.8194 14.0143C61.6383 14.1997 61.4146 14.3446 61.1482 14.449C60.8819 14.5513 60.5825 14.6024 60.2501 14.6024ZM60.4803 7.82683L61.7842 8.99018H60.8638L60.1351 8.31262L59.4064 8.99018H58.4859L59.7771 7.82683H60.4803ZM58.2047 7.047L58.8183 8.21035H58.1663L57.2587 7.047H58.2047ZM68.4564 9.59103V10.2302H65.9123V9.59103H68.4564ZM66.6538 8.41489H67.4081V13.0939C67.4081 13.3069 67.439 13.4667 67.5008 13.5733C67.5647 13.6777 67.6457 13.748 67.7437 13.7842C67.8438 13.8183 67.9493 13.8353 68.0601 13.8353C68.1432 13.8353 68.2113 13.8311 68.2646 13.8226C68.3179 13.8119 68.3605 13.8034 68.3925 13.797L68.5459 14.4746C68.4947 14.4937 68.4234 14.5129 68.3317 14.5321C68.2401 14.5534 68.124 14.564 67.9834 14.564C67.7703 14.564 67.5615 14.5182 67.3569 14.4266C67.1545 14.335 66.9862 14.1954 66.852 14.0079C66.7199 13.8204 66.6538 13.5839 66.6538 13.2984V8.41489ZM69.771 14.5001V9.59103H70.4997V10.3325H70.5508C70.6403 10.0896 70.8022 9.89252 71.0366 9.74124C71.271 9.58997 71.5352 9.51433 71.8292 9.51433C71.8846 9.51433 71.9538 9.51539 72.0369 9.51752C72.12 9.51965 72.1829 9.52285 72.2255 9.52711V10.2942C72.1999 10.2878 72.1413 10.2782 72.0497 10.2654C71.9602 10.2505 71.8654 10.243 71.7653 10.243C71.5266 10.243 71.3136 10.2931 71.1261 10.3932C70.9407 10.4912 70.7937 10.6276 70.685 10.8023C70.5785 10.9749 70.5252 11.172 70.5252 11.3936V14.5001H69.771ZM75.2084 14.6024C74.7354 14.6024 74.3274 14.498 73.9843 14.2892C73.6434 14.0782 73.3803 13.7842 73.1949 13.4071C73.0117 13.0278 72.9201 12.5868 72.9201 12.0839C72.9201 11.5811 73.0117 11.1379 73.1949 10.7544C73.3803 10.3687 73.6381 10.0683 73.9684 9.8531C74.3008 9.63578 74.6885 9.52711 75.1317 9.52711C75.3874 9.52711 75.6399 9.56972 75.8892 9.65495C76.1385 9.74018 76.3654 9.87867 76.5699 10.0704C76.7745 10.2601 76.9375 10.5115 77.0589 10.8247C77.1804 11.1379 77.2411 11.5236 77.2411 11.9817V12.3013H73.457V11.6493H76.474C76.474 11.3723 76.4186 11.1251 76.3079 10.9078C76.1992 10.6905 76.0436 10.5189 75.8412 10.3932C75.641 10.2675 75.4044 10.2047 75.1317 10.2047C74.8313 10.2047 74.5713 10.2792 74.3519 10.4284C74.1346 10.5754 73.9673 10.7672 73.8501 11.0037C73.7329 11.2402 73.6743 11.4937 73.6743 11.7643V12.199C73.6743 12.5697 73.7383 12.884 73.8661 13.1418C73.9961 13.3975 74.1761 13.5925 74.4062 13.7267C74.6363 13.8588 74.9037 13.9248 75.2084 13.9248C75.4066 13.9248 75.5856 13.8971 75.7454 13.8417C75.9073 13.7842 76.0468 13.699 76.164 13.5861C76.2812 13.471 76.3718 13.3282 76.4357 13.1578L77.1644 13.3623C77.0877 13.6095 76.9588 13.8268 76.7777 14.0143C76.5966 14.1997 76.3728 14.3446 76.1065 14.449C75.8402 14.5513 75.5408 14.6024 75.2084 14.6024ZM75.7581 9.00296L75.0934 8.10808L74.4286 9.00296H73.7127V8.95183L74.7482 7.62228H75.4385L76.474 8.95183V9.00296H75.7581ZM79.3227 11.547V14.5001H78.5685V9.59103H79.2972V10.3581H79.3611C79.4761 10.1088 79.6509 9.9085 79.8852 9.75722C80.1196 9.60382 80.4222 9.52711 80.7929 9.52711C81.1253 9.52711 81.4161 9.59529 81.6654 9.73166C81.9147 9.86589 82.1086 10.0704 82.2471 10.3453C82.3856 10.618 82.4548 10.9632 82.4548 11.3808V14.5001H81.7006V11.4319C81.7006 11.0463 81.6004 10.7459 81.4001 10.5307C81.1999 10.3133 80.925 10.2047 80.5756 10.2047C80.3348 10.2047 80.1196 10.2569 79.93 10.3613C79.7425 10.4657 79.5944 10.618 79.4857 10.8183C79.3771 11.0186 79.3227 11.2615 79.3227 11.547Z" fill="white"/>
<path d="M52.5412 21.9767C54.6623 21.9767 56.0605 23.7931 56.0605 26.5988C56.0605 29.4123 54.6704 31.2199 52.5728 31.2199C51.4885 31.2813 50.4672 30.6661 49.9433 29.6359H49.9036V34.1203H48.1881V22.0715H49.8486V23.5773H49.8802C50.4274 22.5536 51.4498 21.9386 52.5412 21.9767ZM61.7395 21.9767C63.8606 21.9767 65.2588 23.7931 65.2588 26.5988C65.2588 29.4123 63.8688 31.2199 61.7711 31.2199C60.6868 31.2813 59.6655 30.6661 59.1416 29.6359H59.1019V34.1203H57.3865V22.0715H59.0469V23.5773H59.0785C59.6257 22.5536 60.6481 21.9386 61.7395 21.9767ZM74.0551 18.5001C76.4772 18.5001 78.1377 19.9718 78.1936 22.1144H76.4619C76.3582 20.8751 75.4126 20.1271 74.0307 20.1271C72.6488 20.1271 71.7032 20.8839 71.7032 21.9855C71.7032 22.8634 72.3072 23.38 73.7846 23.7755L75.0475 24.1114C77.3994 24.714 78.3766 25.7374 78.3766 27.5538C78.3766 29.877 76.6683 31.3321 73.9514 31.3321C71.4093 31.3321 69.693 29.9112 69.5821 27.6651L71.3381 27.6652C71.4652 28.8967 72.5695 29.7052 74.0785 29.7052C75.5244 29.7052 76.5647 28.8966 76.5647 27.7863C76.5647 26.8224 75.9373 26.2453 74.4517 25.8497L72.9661 25.462C70.8613 24.9113 69.8841 23.8449 69.8841 22.1144C69.8841 19.9718 71.6077 18.5001 74.0551 18.5001ZM88.5521 21.9601C90.9752 21.9601 92.5166 23.7501 92.5166 26.5988C92.5166 29.4553 90.9833 31.2375 88.5521 31.2375C86.1218 31.2375 84.5884 29.4553 84.5884 26.5988C84.5884 23.7502 86.1371 21.9601 88.5521 21.9601ZM102.443 21.9601C104.755 21.9601 106.21 23.6808 106.21 26.426V27.0627H100.307V27.175C100.252 27.849 100.467 28.5162 100.897 29.0069C101.327 29.4975 101.931 29.7643 102.555 29.7394C103.388 29.8239 104.172 29.3061 104.485 28.466L106.114 28.466C105.883 30.1095 104.406 31.2375 102.515 31.2375C100.084 31.2375 98.5752 29.4728 98.5752 26.6418C98.5752 23.8019 100.092 21.9601 102.443 21.9601ZM82.0788 19.9289V22.0715H83.668V23.5431H82.0788V28.5344C82.0788 29.3097 82.397 29.6711 83.0956 29.6711C83.2843 29.6675 83.4727 29.6532 83.6599 29.6281V31.091C83.3458 31.1545 83.0266 31.1833 82.7071 31.1769C81.0151 31.1769 80.3552 30.4884 80.3552 28.7326V23.5431H79.1401V22.0715H80.3552V19.9289H82.0788ZM42.9841 18.7072L47.1227 31.1252H45.2404L44.1921 27.7687H39.8228L38.7735 31.1252H36.9229L41.0614 18.7072H42.9841ZM97.617 21.9767C97.8147 21.976 98.0118 21.9992 98.2047 22.0461V23.7843C97.9552 23.7017 97.6948 23.6638 97.434 23.672C96.9296 23.6499 96.4416 23.8676 96.0979 24.2681C95.7542 24.6686 95.5893 25.2118 95.6464 25.755V31.1252H93.931V22.0715H95.5671V23.6125H95.6068C95.8349 22.6205 96.674 21.9377 97.617 21.9767ZM88.5521 23.4914C87.1621 23.4914 86.3363 24.6535 86.3363 26.5988C86.3363 28.5607 87.1621 29.7053 88.5521 29.7053C89.9421 29.7053 90.7687 28.5607 90.7687 26.5988C90.7687 24.6447 89.9421 23.4914 88.5521 23.4914ZM52.0887 23.5607C50.778 23.5607 49.8964 24.7912 49.8964 26.5988C49.8964 28.423 50.778 29.6447 52.0887 29.6447C53.4229 29.6447 54.2972 28.4484 54.2972 26.5988C54.2972 24.7658 53.4228 23.5607 52.0887 23.5607ZM61.287 23.5607C59.9763 23.5607 59.0947 24.7912 59.0947 26.5988C59.0947 28.423 59.9763 29.6447 61.287 29.6447C62.6212 29.6447 63.4956 28.4484 63.4956 26.5988C63.4956 24.7658 62.6212 23.5607 61.287 23.5607ZM42.0314 20.7726H41.9836L40.2753 26.2199H43.7387L42.0314 20.7726ZM102.443 23.466C101.879 23.4623 101.337 23.703 100.937 24.1345C100.538 24.566 100.314 25.1526 100.315 25.7639H104.493C104.524 25.1582 104.321 24.5659 103.932 24.1297C103.543 23.6935 103.003 23.453 102.443 23.466Z" fill="white"/>
</svg>
