<svg width="115" height="48" viewBox="0 0 115 48" fill="none" xmlns="http://www.w3.org/2000/svg">
<g clip-path="url(#clip0_2366_3131)">
<path d="M113.071 12.0877H103.372C101.954 10.468 100.061 9.2772 97.91 8.73883C97.0753 8.52896 96.2013 8.41794 95.3 8.41794C89.2546 8.41794 84.377 13.4275 84.5573 19.5351C84.7315 25.4055 89.6514 30.1017 95.5 29.9953C96.3316 29.9801 97.1374 29.8706 97.91 29.6759C95.6181 31.5252 92.7067 32.6309 89.5409 32.6309C82.2715 32.6309 76.3593 26.8107 76.173 19.5579C76.1715 19.4408 76.1685 19.3222 76.1685 19.2051C76.1685 19.088 76.17 18.9694 76.173 18.8523C76.3593 8.40882 84.8496 -0.001297 95.3 -0.001297C103.359 -0.001297 110.254 5.00219 113.071 12.0862V12.0877Z" fill="url(#paint0_linear_2366_3131)"/>
<path d="M114.479 19.2232V38.4403H106.482V34.0101C102.951 36.7856 98.5008 38.4403 93.6702 38.4403C93.6566 38.4403 93.6429 38.4403 93.6308 38.4403C90.8936 38.4357 88.1883 37.7559 85.7798 36.4495C83.2425 35.0732 81.0431 33.1494 79.3359 30.8377C82.1867 33.0794 85.7783 34.4162 89.6803 34.4162C91.089 34.4162 92.4569 34.2428 93.7641 33.9143C97.7268 32.9197 101.135 30.5107 103.421 27.2532H95.341V19.2217L114.479 19.2232Z" fill="#9A67FF"/>
<path d="M43.0845 38.4401V-3.05176e-05H59.4728C61.7995 -3.05176e-05 63.8702 0.530734 65.6864 1.59226C67.5011 2.65379 68.9462 4.10617 70.0232 5.94636C71.0986 7.78655 71.6364 9.8579 71.6364 12.1589C71.6364 14.4599 71.2395 15.9199 70.1655 17.8133C69.0901 19.7067 67.5541 21.2427 65.7379 22.3392C63.9217 23.4373 61.801 23.9331 59.4743 23.9331H52.6033V38.4401H43.086H43.0845ZM52.6018 16.8308H58.364C59.2092 16.8308 59.9772 16.6194 60.6694 16.1936C61.3617 15.7693 61.9176 15.1914 62.3402 14.4568C62.7629 13.7238 62.9749 12.8752 62.9749 11.911C62.9749 10.9468 62.7629 10.0586 62.3402 9.36516C61.9176 8.67014 61.3602 8.13025 60.6694 7.74549C59.9772 7.36072 59.2092 7.16606 58.364 7.16606H52.6018V16.8308Z" fill="url(#paint1_linear_2366_3131)"/>
<path d="M28.6153 38.4401H38.1326L23.9665 -3.05176e-05H14.3401L0.0649414 38.4401H9.58225L11.9862 31.0809H25.9993L28.6153 38.4401ZM14.9915 24.0532C14.9915 24.0532 18.8511 12.8691 19.095 12.0874C19.3283 12.8493 23.3212 24.0532 23.3212 24.0532H14.9915Z" fill="url(#paint2_linear_2366_3131)"/>
<path d="M3.43702 46.5583C3.43702 46.9416 3.30069 47.2625 3.0356 47.5225C2.77052 47.7826 2.44333 47.9119 2.05554 47.9119H0V43.1289H1.90558C2.27973 43.1289 2.59329 43.2521 2.85231 43.5045C3.11134 43.757 3.2401 44.0642 3.2401 44.4338C3.2401 44.8566 3.07044 45.1927 2.72356 45.4314C3.15981 45.6428 3.43853 46.0458 3.43853 46.5583H3.43702ZM0.633174 43.722V45.1835H1.90558C2.307 45.1835 2.61298 44.8626 2.61298 44.452C2.61298 44.2543 2.54482 44.0825 2.40243 43.9395C2.2661 43.7965 2.1025 43.7205 1.90558 43.7205H0.633174V43.722ZM2.05554 47.3157C2.48422 47.3157 2.81141 46.9735 2.81141 46.5371C2.81141 46.3257 2.73719 46.1401 2.58723 45.9911C2.44484 45.8405 2.26761 45.766 2.05554 45.766H0.633174V47.3172H2.05554V47.3157Z" fill="#101119"/>
<path d="M7.56816 44.4946H8.16044V47.9104H7.56816V47.4176C7.33035 47.807 6.96226 47.9986 6.46541 47.9986C5.66864 47.9986 5.14453 47.4587 5.14453 46.5903V44.4931H5.73681V46.5569C5.73681 47.1104 6.05642 47.4313 6.58053 47.4313C7.17281 47.4313 7.56665 47.0694 7.56665 46.3044V44.4931L7.56816 44.4946Z" fill="#101119"/>
<path d="M9.97656 43.6749C9.97656 43.4559 10.1538 43.2719 10.378 43.2719C10.6022 43.2719 10.7733 43.4559 10.7733 43.6749C10.7733 43.8939 10.5961 44.0718 10.378 44.0718C10.1598 44.0718 9.97656 43.8939 9.97656 43.6749ZM10.0781 47.9119V44.4962H10.6703V47.9119H10.0781Z" fill="#101119"/>
<path d="M12.5972 47.9105V42.9222H13.1894V47.9105H12.5972Z" fill="#101119"/>
<path d="M17.9321 43.1277H18.5244V47.9106H17.9321V47.3236C17.6398 47.7738 17.2111 48.0004 16.6461 48.0004C16.1704 48.0004 15.7614 47.83 15.4282 47.4818C15.0949 47.1335 14.9253 46.7031 14.9253 46.2043C14.9253 45.7054 15.0949 45.2827 15.4282 44.9329C15.7614 44.5846 16.1704 44.4067 16.6461 44.4067C17.2111 44.4067 17.6398 44.6317 17.9321 45.0834V43.1292V43.1277ZM17.5852 47.0772C17.817 46.8384 17.9321 46.551 17.9321 46.2027C17.9321 45.8545 17.817 45.567 17.5852 45.3344C17.3535 45.0956 17.0687 44.9785 16.7203 44.9785C16.3719 44.9785 16.0947 45.0941 15.8629 45.3344C15.6312 45.567 15.5161 45.853 15.5161 46.2027C15.5161 46.5525 15.6312 46.8384 15.8629 47.0772C16.0947 47.3099 16.3795 47.4255 16.7203 47.4255C17.0611 47.4255 17.3535 47.3099 17.5852 47.0772Z" fill="#101119"/>
<path d="M26.2754 43.1277V43.7284H24.8667V47.9106H24.2411V43.7284H22.8384V43.1277H26.2754Z" fill="#101119"/>
<path d="M27.9897 45.068C28.1867 44.6453 28.5411 44.4323 29.0516 44.4323V45.0544C28.7592 45.0407 28.5138 45.1152 28.3033 45.287C28.0927 45.4574 27.9897 45.725 27.9897 46.1007V47.912H27.3975V44.4962H27.9897V45.0696V45.068Z" fill="#101119"/>
<path d="M32.9979 44.4946H33.5901V47.9104H32.9979V47.4176C32.76 47.807 32.3919 47.9986 31.8951 47.9986C31.0983 47.9986 30.5742 47.4587 30.5742 46.5903V44.4931H31.1665V46.5569C31.1665 47.1104 31.4861 47.4313 32.0102 47.4313C32.6025 47.4313 32.9963 47.0694 32.9963 46.3044V44.4931L32.9979 44.4946Z" fill="#101119"/>
<path d="M36.6881 45.9287C37.2198 46.0443 37.9272 46.2435 37.9196 46.9735C37.9196 47.2807 37.7969 47.5332 37.5591 47.7187C37.3212 47.9027 37.0213 47.9985 36.6472 47.9985C35.9867 47.9985 35.4899 47.6837 35.293 47.1986L35.8034 46.9051C35.9125 47.2336 36.2321 47.4374 36.6472 47.4374C37.035 47.4374 37.3212 47.2944 37.3212 46.972C37.3212 46.7058 37.0213 46.5553 36.6472 46.4671C36.1094 46.3241 35.4157 46.1462 35.4157 45.4223C35.4157 45.1288 35.5308 44.8824 35.7565 44.6908C35.9882 44.4991 36.273 44.4033 36.6214 44.4033C37.1728 44.4033 37.6287 44.6695 37.8469 45.1135L37.35 45.3934C37.2273 45.0999 36.9819 44.9554 36.6214 44.9554C36.2882 44.9554 36.0155 45.1196 36.0155 45.4131C36.0155 45.6793 36.3154 45.8238 36.6896 45.9257L36.6881 45.9287Z" fill="#101119"/>
<path d="M41.3548 45.068H40.4489V46.9204C40.4489 47.4466 40.7488 47.4055 41.3548 47.3781V47.9104C40.3202 48.0473 39.8582 47.7675 39.8582 46.9204V45.068H39.1841V44.4947H39.8582V43.716L40.4504 43.5381V44.4947H41.3563V45.068H41.3548Z" fill="#101119"/>
<path d="M45.8809 46.1005V45.5272H48.3651V46.1005H45.8809Z" fill="#101119"/>
<path d="M56.2664 47.9106L55.8786 46.8384H53.7352L53.3474 47.9106H52.6733L54.4502 43.1277H55.1651L56.942 47.9106H56.2679H56.2664ZM53.9518 46.2438H55.6605L54.8031 43.8865L53.9518 46.2438Z" fill="#101119"/>
<path d="M58.7839 47.4877C58.4431 47.1394 58.2734 46.7151 58.2734 46.2026C58.2734 45.69 58.4431 45.2657 58.7839 44.9251C59.1247 44.5768 59.5534 44.4065 60.0639 44.4065C60.738 44.4065 61.303 44.7547 61.5681 45.3007L61.0712 45.5882C60.9016 45.2262 60.5198 44.9874 60.0639 44.9874C59.7231 44.9874 59.4383 45.103 59.2065 45.3357C58.9823 45.5684 58.8657 45.8543 58.8657 46.2041C58.8657 46.5539 58.9808 46.8322 59.2065 47.0649C59.4383 47.2976 59.7231 47.4131 60.0639 47.4131C60.5198 47.4131 60.9016 47.1805 61.0909 46.8185L61.5938 47.112C61.3015 47.6519 60.7228 48.0002 60.0624 48.0002C59.5519 48.0002 59.1232 47.8298 58.7824 47.4877H58.7839Z" fill="#101119"/>
<path d="M66.2229 45.8134V47.9106H65.6306V45.8469C65.6306 45.2933 65.311 44.9724 64.7869 44.9724C64.1946 44.9724 63.8008 45.3344 63.8008 46.0993V47.9106H63.2085V43.1277H63.8008V44.9861C64.0386 44.5968 64.4067 44.4051 64.9035 44.4051C65.7003 44.4051 66.2244 44.945 66.2244 45.8134H66.2229Z" fill="#101119"/>
<path d="M67.9648 43.6749C67.9648 43.4559 68.1421 43.2719 68.3663 43.2719C68.5904 43.2719 68.7616 43.4559 68.7616 43.6749C68.7616 43.8939 68.5844 44.0718 68.3663 44.0718C68.1481 44.0718 67.9648 43.8939 67.9648 43.6749ZM68.0663 47.9119V44.4962H68.6586V47.9119H68.0663Z" fill="#101119"/>
<path d="M70.999 46.4765C71.1141 47.0848 71.5837 47.4407 72.2305 47.4407C72.6804 47.4407 73.006 47.2764 73.2105 46.9418L73.7134 47.2293C73.3802 47.7418 72.8834 48.0018 72.2169 48.0018C71.6791 48.0018 71.2368 47.8315 70.896 47.4969C70.5627 47.1548 70.3931 46.7244 70.3931 46.2058C70.3931 45.6872 70.5567 45.2629 70.8899 44.9207C71.2232 44.5785 71.6518 44.4082 72.176 44.4082C72.6728 44.4082 73.0818 44.5861 73.3938 44.9404C73.7134 45.2887 73.871 45.713 73.871 46.2118C73.871 46.3001 73.8634 46.3898 73.8498 46.478H70.9975L70.999 46.4765ZM70.999 45.9579H73.2726C73.1712 45.3085 72.7213 44.9678 72.1775 44.9678C71.5443 44.9678 71.102 45.3571 71.0005 45.9579H70.999Z" fill="#101119"/>
<path d="M77.8186 44.495H78.4578L77.0961 47.9107H76.4023L75.0405 44.495H75.6798L76.7477 47.2766L77.8156 44.495H77.8186Z" fill="#101119"/>
<path d="M80.3979 46.4765C80.513 47.0848 80.9826 47.4407 81.6294 47.4407C82.0793 47.4407 82.405 47.2764 82.6095 46.9418L83.1124 47.2293C82.7791 47.7418 82.2823 48.0018 81.6158 48.0018C81.078 48.0018 80.6357 47.8315 80.2949 47.4969C79.9616 47.1548 79.792 46.7244 79.792 46.2058C79.792 45.6872 79.9556 45.2629 80.2888 44.9207C80.6221 44.5785 81.0508 44.4082 81.5749 44.4082C82.0717 44.4082 82.4807 44.5861 82.7928 44.9404C83.1124 45.2887 83.2699 45.713 83.2699 46.2118C83.2699 46.3001 83.2623 46.3898 83.2487 46.478H80.3964L80.3979 46.4765ZM80.3979 45.9579H82.6716C82.5701 45.3085 82.1202 44.9678 81.5764 44.9678C80.9432 44.9678 80.5009 45.3571 80.3994 45.9579H80.3979Z" fill="#101119"/>
<path d="M88.7809 47.9106L87.4131 43.1277H88.0796L89.1687 47.0635L90.326 43.1277H90.9652L92.1225 47.0635L93.2116 43.1277H93.8781L92.5103 47.9106H91.7756L90.6456 44.0903L89.5156 47.9106H88.7809Z" fill="#101119"/>
<path d="M95.5258 46.4765C95.641 47.0848 96.1105 47.4407 96.7573 47.4407C97.2072 47.4407 97.5329 47.2764 97.7374 46.9418L98.2403 47.2293C97.907 47.7418 97.4102 48.0018 96.7437 48.0018C96.206 48.0018 95.7637 47.8315 95.4228 47.4969C95.0896 47.1548 94.9199 46.7244 94.9199 46.2058C94.9199 45.6872 95.0835 45.2629 95.4168 44.9207C95.75 44.5785 96.1787 44.4082 96.7028 44.4082C97.1997 44.4082 97.6086 44.5861 97.9207 44.9404C98.2403 45.2887 98.3978 45.713 98.3978 46.2118C98.3978 46.3001 98.3903 46.3898 98.3766 46.478H95.5243L95.5258 46.4765ZM95.5258 45.9579H97.7995C97.698 45.3085 97.2481 44.9678 96.7043 44.9678C96.0711 44.9678 95.6288 45.3571 95.5273 45.9579H95.5258Z" fill="#101119"/>
<path d="M102.909 44.4947H103.501V47.9104H102.909V47.3234C102.617 47.7736 102.188 48.0002 101.623 48.0002C101.147 48.0002 100.738 47.8298 100.405 47.4816C100.072 47.1333 99.9023 46.7029 99.9023 46.2041C99.9023 45.7053 100.072 45.2825 100.405 44.9327C100.738 44.5844 101.147 44.4065 101.623 44.4065C102.188 44.4065 102.617 44.6316 102.909 45.0832V44.4962V44.4947ZM102.562 47.077C102.794 46.8383 102.909 46.5508 102.909 46.2026C102.909 45.8543 102.794 45.5669 102.562 45.3342C102.331 45.0954 102.046 44.9783 101.697 44.9783C101.349 44.9783 101.072 45.0939 100.84 45.3342C100.608 45.5669 100.493 45.8528 100.493 46.2026C100.493 46.5524 100.608 46.8383 100.84 47.077C101.072 47.3097 101.357 47.4253 101.697 47.4253C102.038 47.4253 102.331 47.3097 102.562 47.077Z" fill="#101119"/>
<path d="M105.42 47.9105V42.9222H106.013V47.9105H105.42Z" fill="#101119"/>
<path d="M109.789 45.068H108.883V46.9204C108.883 47.4466 109.183 47.4055 109.789 47.3781V47.9104C108.754 48.0473 108.292 47.7675 108.292 46.9204V45.068H107.618V44.4947H108.292V43.716L108.885 43.5381V44.4947H109.79V45.068H109.789Z" fill="#101119"/>
<path d="M114.546 45.8134V47.9106H113.953V45.8469C113.953 45.2933 113.634 44.9724 113.11 44.9724C112.517 44.9724 112.124 45.3344 112.124 46.0993V47.9106H111.531V43.1277H112.124V44.9861C112.361 44.5968 112.729 44.4051 113.226 44.4051C114.023 44.4051 114.547 44.945 114.547 45.8134H114.546Z" fill="#101119"/>
<path d="M3.43702 46.5583C3.43702 46.9416 3.30069 47.2625 3.0356 47.5225C2.77052 47.7826 2.44333 47.9119 2.05554 47.9119H0V43.1289H1.90558C2.27973 43.1289 2.59329 43.2521 2.85231 43.5045C3.11134 43.757 3.2401 44.0642 3.2401 44.4338C3.2401 44.8566 3.07044 45.1927 2.72356 45.4314C3.15981 45.6428 3.43853 46.0458 3.43853 46.5583H3.43702ZM0.633174 43.722V45.1835H1.90558C2.307 45.1835 2.61298 44.8626 2.61298 44.452C2.61298 44.2543 2.54482 44.0825 2.40243 43.9395C2.2661 43.7965 2.1025 43.7205 1.90558 43.7205H0.633174V43.722ZM2.05554 47.3157C2.48422 47.3157 2.81141 46.9735 2.81141 46.5371C2.81141 46.3257 2.73719 46.1401 2.58723 45.9911C2.44484 45.8405 2.26761 45.766 2.05554 45.766H0.633174V47.3172H2.05554V47.3157Z" fill="#F06D27"/>
<path d="M7.56816 44.4946H8.16044V47.9104H7.56816V47.4176C7.33035 47.807 6.96226 47.9986 6.46541 47.9986C5.66864 47.9986 5.14453 47.4587 5.14453 46.5903V44.4931H5.73681V46.5569C5.73681 47.1104 6.05642 47.4313 6.58053 47.4313C7.17281 47.4313 7.56665 47.0694 7.56665 46.3044V44.4931L7.56816 44.4946Z" fill="#F06D27"/>
<path d="M9.97656 43.6749C9.97656 43.4559 10.1538 43.2719 10.378 43.2719C10.6022 43.2719 10.7733 43.4559 10.7733 43.6749C10.7733 43.8939 10.5961 44.0718 10.378 44.0718C10.1598 44.0718 9.97656 43.8939 9.97656 43.6749ZM10.0781 47.9119V44.4962H10.6703V47.9119H10.0781Z" fill="#F06D27"/>
<path d="M12.5972 47.9105V42.9222H13.1894V47.9105H12.5972Z" fill="#F06D27"/>
<path d="M17.9321 43.1277H18.5244V47.9106H17.9321V47.3236C17.6398 47.7738 17.2111 48.0004 16.6461 48.0004C16.1704 48.0004 15.7614 47.83 15.4282 47.4818C15.0949 47.1335 14.9253 46.7031 14.9253 46.2043C14.9253 45.7054 15.0949 45.2827 15.4282 44.9329C15.7614 44.5846 16.1704 44.4067 16.6461 44.4067C17.2111 44.4067 17.6398 44.6317 17.9321 45.0834V43.1292V43.1277ZM17.5852 47.0772C17.817 46.8384 17.9321 46.551 17.9321 46.2027C17.9321 45.8545 17.817 45.567 17.5852 45.3344C17.3535 45.0956 17.0687 44.9785 16.7203 44.9785C16.3719 44.9785 16.0947 45.0941 15.8629 45.3344C15.6312 45.567 15.5161 45.853 15.5161 46.2027C15.5161 46.5525 15.6312 46.8384 15.8629 47.0772C16.0947 47.3099 16.3795 47.4255 16.7203 47.4255C17.0611 47.4255 17.3535 47.3099 17.5852 47.0772Z" fill="#F06D27"/>
<path d="M26.2754 43.1277V43.7284H24.8667V47.9106H24.2411V43.7284H22.8384V43.1277H26.2754Z" fill="#F06D27"/>
<path d="M27.9897 45.068C28.1867 44.6453 28.5411 44.4323 29.0516 44.4323V45.0544C28.7592 45.0407 28.5138 45.1152 28.3033 45.287C28.0927 45.4574 27.9897 45.725 27.9897 46.1007V47.912H27.3975V44.4962H27.9897V45.0696V45.068Z" fill="#F06D27"/>
<path d="M32.9979 44.4946H33.5901V47.9104H32.9979V47.4176C32.76 47.807 32.3919 47.9986 31.8951 47.9986C31.0983 47.9986 30.5742 47.4587 30.5742 46.5903V44.4931H31.1665V46.5569C31.1665 47.1104 31.4861 47.4313 32.0102 47.4313C32.6025 47.4313 32.9963 47.0694 32.9963 46.3044V44.4931L32.9979 44.4946Z" fill="#F06D27"/>
<path d="M36.6881 45.9287C37.2198 46.0443 37.9272 46.2435 37.9196 46.9735C37.9196 47.2807 37.7969 47.5332 37.5591 47.7187C37.3212 47.9027 37.0213 47.9985 36.6472 47.9985C35.9867 47.9985 35.4899 47.6837 35.293 47.1986L35.8034 46.9051C35.9125 47.2336 36.2321 47.4374 36.6472 47.4374C37.035 47.4374 37.3212 47.2944 37.3212 46.972C37.3212 46.7058 37.0213 46.5553 36.6472 46.4671C36.1094 46.3241 35.4157 46.1462 35.4157 45.4223C35.4157 45.1288 35.5308 44.8824 35.7565 44.6908C35.9882 44.4991 36.273 44.4033 36.6214 44.4033C37.1728 44.4033 37.6287 44.6695 37.8469 45.1135L37.35 45.3934C37.2273 45.0999 36.9819 44.9554 36.6214 44.9554C36.2882 44.9554 36.0155 45.1196 36.0155 45.4131C36.0155 45.6793 36.3154 45.8238 36.6896 45.9257L36.6881 45.9287Z" fill="#F06D27"/>
<path d="M41.3548 45.068H40.4489V46.9204C40.4489 47.4466 40.7488 47.4055 41.3548 47.3781V47.9104C40.3202 48.0473 39.8582 47.7675 39.8582 46.9204V45.068H39.1841V44.4947H39.8582V43.716L40.4504 43.5381V44.4947H41.3563V45.068H41.3548Z" fill="#F06D27"/>
<path d="M45.8809 46.1005V45.5272H48.3651V46.1005H45.8809Z" fill="#F06D27"/>
<path d="M56.2664 47.9106L55.8786 46.8384H53.7352L53.3474 47.9106H52.6733L54.4502 43.1277H55.1651L56.942 47.9106H56.2679H56.2664ZM53.9518 46.2438H55.6605L54.8031 43.8865L53.9518 46.2438Z" fill="#F06D27"/>
<path d="M58.7839 47.4877C58.4431 47.1394 58.2734 46.7151 58.2734 46.2026C58.2734 45.69 58.4431 45.2657 58.7839 44.9251C59.1247 44.5768 59.5534 44.4065 60.0639 44.4065C60.738 44.4065 61.303 44.7547 61.5681 45.3007L61.0712 45.5882C60.9016 45.2262 60.5198 44.9874 60.0639 44.9874C59.7231 44.9874 59.4383 45.103 59.2065 45.3357C58.9823 45.5684 58.8657 45.8543 58.8657 46.2041C58.8657 46.5539 58.9808 46.8322 59.2065 47.0649C59.4383 47.2976 59.7231 47.4131 60.0639 47.4131C60.5198 47.4131 60.9016 47.1805 61.0909 46.8185L61.5938 47.112C61.3015 47.6519 60.7228 48.0002 60.0624 48.0002C59.5519 48.0002 59.1232 47.8298 58.7824 47.4877H58.7839Z" fill="#F06D27"/>
<path d="M66.2229 45.8134V47.9106H65.6306V45.8469C65.6306 45.2933 65.311 44.9724 64.7869 44.9724C64.1946 44.9724 63.8008 45.3344 63.8008 46.0993V47.9106H63.2085V43.1277H63.8008V44.9861C64.0386 44.5968 64.4067 44.4051 64.9035 44.4051C65.7003 44.4051 66.2244 44.945 66.2244 45.8134H66.2229Z" fill="#F06D27"/>
<path d="M67.9648 43.6749C67.9648 43.4559 68.1421 43.2719 68.3663 43.2719C68.5904 43.2719 68.7616 43.4559 68.7616 43.6749C68.7616 43.8939 68.5844 44.0718 68.3663 44.0718C68.1481 44.0718 67.9648 43.8939 67.9648 43.6749ZM68.0663 47.9119V44.4962H68.6586V47.9119H68.0663Z" fill="#F06D27"/>
<path d="M70.999 46.4765C71.1141 47.0848 71.5837 47.4407 72.2305 47.4407C72.6804 47.4407 73.006 47.2764 73.2105 46.9418L73.7134 47.2293C73.3802 47.7418 72.8834 48.0018 72.2169 48.0018C71.6791 48.0018 71.2368 47.8315 70.896 47.4969C70.5627 47.1548 70.3931 46.7244 70.3931 46.2058C70.3931 45.6872 70.5567 45.2629 70.8899 44.9207C71.2232 44.5785 71.6518 44.4082 72.176 44.4082C72.6728 44.4082 73.0818 44.5861 73.3938 44.9404C73.7134 45.2887 73.871 45.713 73.871 46.2118C73.871 46.3001 73.8634 46.3898 73.8498 46.478H70.9975L70.999 46.4765ZM70.999 45.9579H73.2726C73.1712 45.3085 72.7213 44.9678 72.1775 44.9678C71.5443 44.9678 71.102 45.3571 71.0005 45.9579H70.999Z" fill="#F06D27"/>
<path d="M77.8186 44.495H78.4578L77.0961 47.9107H76.4023L75.0405 44.495H75.6798L76.7477 47.2766L77.8156 44.495H77.8186Z" fill="#F06D27"/>
<path d="M80.3979 46.4765C80.513 47.0848 80.9826 47.4407 81.6294 47.4407C82.0793 47.4407 82.405 47.2764 82.6095 46.9418L83.1124 47.2293C82.7791 47.7418 82.2823 48.0018 81.6158 48.0018C81.078 48.0018 80.6357 47.8315 80.2949 47.4969C79.9616 47.1548 79.792 46.7244 79.792 46.2058C79.792 45.6872 79.9556 45.2629 80.2888 44.9207C80.6221 44.5785 81.0508 44.4082 81.5749 44.4082C82.0717 44.4082 82.4807 44.5861 82.7928 44.9404C83.1124 45.2887 83.2699 45.713 83.2699 46.2118C83.2699 46.3001 83.2623 46.3898 83.2487 46.478H80.3964L80.3979 46.4765ZM80.3979 45.9579H82.6716C82.5701 45.3085 82.1202 44.9678 81.5764 44.9678C80.9432 44.9678 80.5009 45.3571 80.3994 45.9579H80.3979Z" fill="#F06D27"/>
<path d="M88.7809 47.9106L87.4131 43.1277H88.0796L89.1687 47.0635L90.326 43.1277H90.9652L92.1225 47.0635L93.2116 43.1277H93.8781L92.5103 47.9106H91.7756L90.6456 44.0903L89.5156 47.9106H88.7809Z" fill="#F06D27"/>
<path d="M95.5258 46.4765C95.641 47.0848 96.1105 47.4407 96.7573 47.4407C97.2072 47.4407 97.5329 47.2764 97.7374 46.9418L98.2403 47.2293C97.907 47.7418 97.4102 48.0018 96.7437 48.0018C96.206 48.0018 95.7637 47.8315 95.4228 47.4969C95.0896 47.1548 94.9199 46.7244 94.9199 46.2058C94.9199 45.6872 95.0835 45.2629 95.4168 44.9207C95.75 44.5785 96.1787 44.4082 96.7028 44.4082C97.1997 44.4082 97.6086 44.5861 97.9207 44.9404C98.2403 45.2887 98.3978 45.713 98.3978 46.2118C98.3978 46.3001 98.3903 46.3898 98.3766 46.478H95.5243L95.5258 46.4765ZM95.5258 45.9579H97.7995C97.698 45.3085 97.2481 44.9678 96.7043 44.9678C96.0711 44.9678 95.6288 45.3571 95.5273 45.9579H95.5258Z" fill="#F06D27"/>
<path d="M102.909 44.4947H103.501V47.9104H102.909V47.3234C102.617 47.7736 102.188 48.0002 101.623 48.0002C101.147 48.0002 100.738 47.8298 100.405 47.4816C100.072 47.1333 99.9023 46.7029 99.9023 46.2041C99.9023 45.7053 100.072 45.2825 100.405 44.9327C100.738 44.5844 101.147 44.4065 101.623 44.4065C102.188 44.4065 102.617 44.6316 102.909 45.0832V44.4962V44.4947ZM102.562 47.077C102.794 46.8383 102.909 46.5508 102.909 46.2026C102.909 45.8543 102.794 45.5669 102.562 45.3342C102.331 45.0954 102.046 44.9783 101.697 44.9783C101.349 44.9783 101.072 45.0939 100.84 45.3342C100.608 45.5669 100.493 45.8528 100.493 46.2026C100.493 46.5524 100.608 46.8383 100.84 47.077C101.072 47.3097 101.357 47.4253 101.697 47.4253C102.038 47.4253 102.331 47.3097 102.562 47.077Z" fill="#F06D27"/>
<path d="M105.42 47.9105V42.9222H106.013V47.9105H105.42Z" fill="#F06D27"/>
<path d="M109.789 45.068H108.883V46.9204C108.883 47.4466 109.183 47.4055 109.789 47.3781V47.9104C108.754 48.0473 108.292 47.7675 108.292 46.9204V45.068H107.618V44.4947H108.292V43.716L108.885 43.5381V44.4947H109.79V45.068H109.789Z" fill="#F06D27"/>
<path d="M114.546 45.8134V47.9106H113.953V45.8469C113.953 45.2933 113.634 44.9724 113.11 44.9724C112.517 44.9724 112.124 45.3344 112.124 46.0993V47.9106H111.531V43.1277H112.124V44.9861C112.361 44.5968 112.729 44.4051 113.226 44.4051C114.023 44.4051 114.547 44.945 114.547 45.8134H114.546Z" fill="#F06D27"/>
</g>
<defs>
<linearGradient id="paint0_linear_2366_3131" x1="94.6199" y1="-9.38625" x2="94.6199" y2="46.4596" gradientUnits="userSpaceOnUse">
<stop stop-color="#F69A00"/>
<stop offset="1" stop-color="#F06800"/>
</linearGradient>
<linearGradient id="paint1_linear_2366_3131" x1="57.3597" y1="-9.38651" x2="57.3597" y2="46.4594" gradientUnits="userSpaceOnUse">
<stop stop-color="#F69A00"/>
<stop offset="1" stop-color="#F06800"/>
</linearGradient>
<linearGradient id="paint2_linear_2366_3131" x1="19.098" y1="-9.38651" x2="19.098" y2="46.4594" gradientUnits="userSpaceOnUse">
<stop stop-color="#F69A00"/>
<stop offset="1" stop-color="#F06800"/>
</linearGradient>
<clipPath id="clip0_2366_3131">
<rect width="114.545" height="48" fill="white"/>
</clipPath>
</defs>
</svg>
