<svg width="120" height="40" viewBox="0 0 120 40" fill="none" xmlns="http://www.w3.org/2000/svg">
<rect y="0.00012207" width="120" height="40" rx="5" fill="#101119"/>
<path fill-rule="evenodd" clip-rule="evenodd" d="M8.66438 8.85527C8.42398 9.13092 8.28271 9.55781 8.28271 10.1118V29.8885C8.28271 30.4425 8.42398 30.8694 8.66438 31.1451L8.72551 31.2095L18.952 20.1308V19.8695L8.72551 8.79083L8.66438 8.85527Z" fill="#00D7FE"/>
<mask id="mask0_2366_3218" style="mask-type:alpha" maskUnits="userSpaceOnUse" x="18" y="16" width="10" height="8">
<path d="M22.3599 23.8256L18.9521 20.1313V19.8699L22.3615 16.1765L26.4772 18.7092C27.6305 19.4198 27.6305 20.5814 26.4772 21.2911L22.4383 23.7773L22.3599 23.8256Z" fill="white"/>
</mask>
<g mask="url(#mask0_2366_3218)">
<path fill-rule="evenodd" clip-rule="evenodd" d="M22.3599 23.8254L18.9521 20.131V19.8697L22.3615 16.1762L26.4772 18.7089C27.6305 19.4195 27.6305 20.5812 26.4772 21.2909L22.4383 23.7771L22.3599 23.8254Z" fill="url(#paint0_linear_2366_3218)"/>
</g>
<mask id="mask1_2366_3218" style="mask-type:alpha" maskUnits="userSpaceOnUse" x="8" y="20" width="15" height="12">
<path d="M22.4379 23.7767L18.9517 19.9999L8.66406 31.1448C9.0449 31.5807 9.67275 31.6344 10.3799 31.1994L22.4379 23.7767Z" fill="white"/>
</mask>
<g mask="url(#mask1_2366_3218)">
<path fill-rule="evenodd" clip-rule="evenodd" d="M22.4379 23.7767L18.9517 19.9999L8.66406 31.1448C9.0449 31.5807 9.67275 31.6344 10.3799 31.1994L22.4379 23.7767Z" fill="url(#paint1_linear_2366_3218)"/>
</g>
<mask id="mask2_2366_3218" style="mask-type:alpha" maskUnits="userSpaceOnUse" x="8" y="8" width="15" height="12">
<path d="M22.4379 16.2232L10.3799 8.80045C9.67275 8.3655 9.0449 8.4192 8.66406 8.85504L18.9517 19.9999L22.4379 16.2232Z" fill="white"/>
</mask>
<g mask="url(#mask2_2366_3218)">
<path fill-rule="evenodd" clip-rule="evenodd" d="M22.4379 16.2232L10.3799 8.80045C9.67275 8.3655 9.0449 8.4192 8.66406 8.85504L18.9517 19.9999L22.4379 16.2232Z" fill="url(#paint2_linear_2366_3218)"/>
</g>
<path fill-rule="evenodd" clip-rule="evenodd" d="M95.9024 30.9531H97.6248V18.4521H95.9024V30.9531ZM111.417 22.9551L109.442 28.3751H109.383L107.334 22.9551H105.478L108.551 30.5301L106.799 34.7441H108.597L113.332 22.9551H111.417ZM101.649 29.5331C101.084 29.5331 100.297 29.2281 100.297 28.4721C100.297 27.5071 101.277 27.1371 102.123 27.1371C102.881 27.1371 103.236 27.3141 103.697 27.5551C103.563 28.7131 102.643 29.5331 101.649 29.5331ZM101.856 22.6821C100.609 22.6821 99.3178 23.2771 98.7833 24.5961L100.312 25.2871C100.639 24.5961 101.247 24.3701 101.886 24.3701C102.777 24.3701 103.682 24.9491 103.697 25.9791V26.1071C103.385 25.9141 102.717 25.6251 101.901 25.6251C100.253 25.6251 98.5747 26.6061 98.5747 28.4391C98.5747 30.1121 99.9261 31.1901 101.44 31.1901C102.598 31.1901 103.236 30.6271 103.638 29.9671H103.697V30.9321H105.359V26.1401C105.359 23.9201 103.831 22.6821 101.856 22.6821ZM91.2113 24.4771H88.7615V20.1921H91.2113C92.499 20.1921 93.2301 21.3471 93.2301 22.3341C93.2301 23.3031 92.499 24.4771 91.2113 24.4771ZM91.167 18.4521H87.0399V30.9531H88.7615V26.2171H91.167C93.0759 26.2171 94.9525 24.7191 94.9525 22.3341C94.9525 19.9491 93.0759 18.4521 91.167 18.4521ZM68.6615 29.5351C67.4716 29.5351 66.4756 28.4561 66.4756 26.9741C66.4756 25.4761 67.4716 24.3801 68.6615 24.3801C69.8365 24.3801 70.7578 25.4761 70.7578 26.9741C70.7578 28.4561 69.8365 29.5351 68.6615 29.5351ZM70.6387 23.6551H70.5796C70.1928 23.1561 69.4498 22.7051 68.5128 22.7051C66.5495 22.7051 64.7504 24.5731 64.7504 26.9741C64.7504 29.3581 66.5495 31.2111 68.5128 31.2111C69.4498 31.2111 70.1928 30.7601 70.5796 30.2441H70.6387V30.8561C70.6387 32.4841 69.8365 33.3541 68.5424 33.3541C67.4864 33.3541 66.8319 32.5321 66.5642 31.8391L65.0624 32.5161C65.4935 33.6441 66.639 35.0291 68.5424 35.0291C70.5648 35.0291 72.2753 33.7401 72.2753 30.5991V22.9621H70.6387V23.6551ZM73.4651 30.9531H75.1904V18.4511H73.4651V30.9531ZM77.7325 26.8291C77.6882 25.1861 78.9076 24.3481 79.7845 24.3481C80.4695 24.3481 81.0491 24.7181 81.2421 25.2501L77.7325 26.8291ZM83.0864 25.4111C82.7596 24.4611 81.7627 22.7051 79.7255 22.7051C77.703 22.7051 76.023 24.4281 76.023 26.9581C76.023 29.3421 77.6882 31.2111 79.9184 31.2111C81.7184 31.2111 82.7596 30.0191 83.1907 29.3261L81.8522 28.3591C81.4064 29.0681 80.7962 29.5351 79.9184 29.5351C79.0415 29.5351 78.4165 29.1001 78.015 28.2471L83.2645 25.8951L83.0864 25.4111ZM41.2636 24.0101V25.8141H45.2485C45.1295 26.8291 44.8175 27.5701 44.3421 28.0861C43.7615 28.7141 42.8541 29.4061 41.2636 29.4061C38.8101 29.4061 36.891 27.2641 36.891 24.6061C36.891 21.9471 38.8101 19.8051 41.2636 19.8051C42.5873 19.8051 43.5538 20.3691 44.2673 21.0941L45.4424 19.8211C44.4455 18.7901 43.1227 18.0001 41.2636 18.0001C37.9027 18.0001 35.0771 20.9651 35.0771 24.6061C35.0771 28.2471 37.9027 31.2111 41.2636 31.2111C43.0775 31.2111 44.4455 30.5671 45.5162 29.3581C46.6165 28.1661 46.959 26.4911 46.959 25.1371C46.959 24.7181 46.9295 24.3321 46.8695 24.0101H41.2636ZM51.4904 29.5351C50.3005 29.5351 49.2741 28.4721 49.2741 26.9581C49.2741 25.4271 50.3005 24.3801 51.4904 24.3801C52.6793 24.3801 53.7058 25.4271 53.7058 26.9581C53.7058 28.4721 52.6793 29.5351 51.4904 29.5351ZM51.4904 22.7051C49.3184 22.7051 47.5488 24.4931 47.5488 26.9581C47.5488 29.4061 49.3184 31.2111 51.4904 31.2111C53.6615 31.2111 55.431 29.4061 55.431 26.9581C55.431 24.4931 53.6615 22.7051 51.4904 22.7051ZM60.087 29.5351C58.8971 29.5351 57.8707 28.4721 57.8707 26.9581C57.8707 25.4271 58.8971 24.3801 60.087 24.3801C61.2768 24.3801 62.3024 25.4271 62.3024 26.9581C62.3024 28.4721 61.2768 29.5351 60.087 29.5351ZM60.087 22.7051C57.9159 22.7051 56.1464 24.4931 56.1464 26.9581C56.1464 29.4061 57.9159 31.2111 60.087 31.2111C62.2581 31.2111 64.0276 29.4061 64.0276 26.9581C64.0276 24.4931 62.2581 22.7051 60.087 22.7051Z" fill="#FFFFFE"/>
<path d="M35.5118 8.15779V7.45467H40.4209V8.15779H38.3627V14.0001H37.57V8.15779H35.5118ZM42.0485 14.1152C41.7375 14.1152 41.4551 14.0566 41.2016 13.9394C40.948 13.8201 40.7467 13.6486 40.5975 13.4248C40.4484 13.199 40.3738 12.9263 40.3738 12.6067C40.3738 12.3254 40.4292 12.0974 40.54 11.9227C40.6508 11.7459 40.7989 11.6074 40.9843 11.5072C41.1696 11.4071 41.3742 11.3325 41.5979 11.2835C41.8238 11.2324 42.0507 11.1919 42.2787 11.1621C42.5769 11.1237 42.8188 11.0949 43.0041 11.0758C43.1916 11.0545 43.328 11.0193 43.4132 10.9703C43.5006 10.9213 43.5443 10.8361 43.5443 10.7146V10.689C43.5443 10.3737 43.458 10.1287 43.2854 9.95396C43.1149 9.77924 42.8561 9.69188 42.5088 9.69188C42.1487 9.69188 41.8664 9.77072 41.6618 9.92839C41.4573 10.0861 41.3135 10.2544 41.2304 10.4334L40.5144 10.1777C40.6423 9.87938 40.8127 9.64714 41.0258 9.48095C41.241 9.31262 41.4754 9.19543 41.7289 9.12938C41.9846 9.0612 42.236 9.02711 42.4832 9.02711C42.6409 9.02711 42.822 9.04629 43.0265 9.08464C43.2332 9.12086 43.4324 9.1965 43.6242 9.31156C43.8181 9.42661 43.9789 9.60026 44.1068 9.83251C44.2346 10.0648 44.2985 10.3758 44.2985 10.7657V14.0001H43.5443V13.3353H43.5059C43.4548 13.4419 43.3696 13.5559 43.2502 13.6773C43.1309 13.7988 42.9722 13.9021 42.774 13.9873C42.5759 14.0726 42.334 14.1152 42.0485 14.1152ZM42.1636 13.4376C42.4619 13.4376 42.7133 13.379 42.9179 13.2618C43.1245 13.1447 43.2801 12.9934 43.3845 12.808C43.491 12.6226 43.5443 12.4277 43.5443 12.2231V11.5328C43.5123 11.5711 43.442 11.6063 43.3333 11.6383C43.2268 11.6681 43.1032 11.6947 42.9626 11.7182C42.8241 11.7395 42.6888 11.7586 42.5567 11.7757C42.4267 11.7906 42.3213 11.8034 42.2403 11.814C42.0443 11.8396 41.861 11.8812 41.6906 11.9387C41.5223 11.9941 41.3859 12.0782 41.2815 12.1912C41.1792 12.302 41.1281 12.4532 41.1281 12.645C41.1281 12.9071 41.225 13.1052 41.4189 13.2395C41.6149 13.3716 41.8632 13.4376 42.1636 13.4376ZM42.8667 8.42626H42.2403V7.73592C42.464 7.72313 42.6217 7.69224 42.7133 7.64323C42.8071 7.59423 42.8539 7.51859 42.8539 7.41631C42.8539 7.30126 42.7868 7.2171 42.6526 7.16383C42.5184 7.11056 42.3554 7.08393 42.1636 7.08393L42.1892 6.59813C42.6302 6.59813 42.9637 6.67484 43.1895 6.82825C43.4175 6.98166 43.5315 7.1862 43.5315 7.44188C43.5315 7.65921 43.4622 7.81795 43.3238 7.91809C43.1853 8.01823 43.0329 8.08109 42.8667 8.10666V8.42626ZM45.4052 14.0001V9.09103H46.1595V14.0001H45.4052ZM45.7887 8.27285C45.6417 8.27285 45.515 8.22278 45.4084 8.12264C45.304 8.02249 45.2518 7.90211 45.2518 7.76149C45.2518 7.62086 45.304 7.50048 45.4084 7.40033C45.515 7.30019 45.6417 7.25012 45.7887 7.25012C45.9358 7.25012 46.0615 7.30019 46.1659 7.40033C46.2724 7.50048 46.3257 7.62086 46.3257 7.76149C46.3257 7.90211 46.2724 8.02249 46.1659 8.12264C46.0615 8.22278 45.9358 8.27285 45.7887 8.27285ZM53.5464 9.09103L51.7311 14.0001H50.964L49.1487 9.09103H49.9669L51.322 13.003H51.3731L52.7282 9.09103H53.5464ZM56.1544 14.1024C55.6814 14.1024 55.2734 13.998 54.9304 13.7892C54.5895 13.5782 54.3263 13.2842 54.1409 12.9071C53.9577 12.5278 53.8661 12.0868 53.8661 11.5839C53.8661 11.0811 53.9577 10.6379 54.1409 10.2544C54.3263 9.86873 54.5841 9.5683 54.9144 9.3531C55.2468 9.13578 55.6346 9.02711 56.0777 9.02711C56.3334 9.02711 56.5859 9.06972 56.8352 9.15495C57.0845 9.24018 57.3114 9.37867 57.5159 9.57043C57.7205 9.76007 57.8835 10.0115 58.0049 10.3247C58.1264 10.6379 58.1871 11.0236 58.1871 11.4817V11.8013H54.403V11.1493H57.4201C57.4201 10.8723 57.3647 10.6251 57.2539 10.4078C57.1452 10.1905 56.9897 10.0189 56.7873 9.89323C56.587 9.76752 56.3505 9.70467 56.0777 9.70467C55.7773 9.70467 55.5174 9.77924 55.2979 9.92839C55.0806 10.0754 54.9133 10.2672 54.7961 10.5037C54.6789 10.7402 54.6203 10.9937 54.6203 11.2643V11.699C54.6203 12.0697 54.6843 12.384 54.8121 12.6418C54.9421 12.8975 55.1221 13.0925 55.3522 13.2267C55.5824 13.3588 55.8498 13.4248 56.1544 13.4248C56.3526 13.4248 56.5316 13.3971 56.6914 13.3417C56.8533 13.2842 56.9929 13.199 57.11 13.0861C57.2272 12.971 57.3178 12.8282 57.3817 12.6578L58.1104 12.8623C58.0337 13.1095 57.9048 13.3268 57.7237 13.5143C57.5426 13.6997 57.3189 13.8446 57.0525 13.949C56.7862 14.0513 56.4868 14.1024 56.1544 14.1024ZM56.3846 7.32683L57.6885 8.49018H56.7681L56.0394 7.81262L55.3107 8.49018H54.3902L55.6814 7.32683H56.3846ZM54.109 6.547L54.7226 7.71035H54.0706L53.163 6.547H54.109ZM63.4607 9.09103V9.73024H60.9166V9.09103H63.4607ZM61.6581 7.91489H62.4124V12.5939C62.4124 12.8069 62.4433 12.9667 62.5051 13.0733C62.569 13.1777 62.65 13.248 62.748 13.2842C62.8481 13.3183 62.9536 13.3353 63.0644 13.3353C63.1475 13.3353 63.2156 13.3311 63.2689 13.3226C63.3222 13.3119 63.3648 13.3034 63.3968 13.297L63.5502 13.9746C63.499 13.9937 63.4276 14.0129 63.336 14.0321C63.2444 14.0534 63.1283 14.064 62.9877 14.064C62.7746 14.064 62.5658 14.0182 62.3612 13.9266C62.1588 13.835 61.9905 13.6954 61.8563 13.5079C61.7242 13.3204 61.6581 13.0839 61.6581 12.7984V7.91489ZM64.3253 14.0001V9.09103H65.054V9.83251H65.1051C65.1946 9.58961 65.3565 9.39252 65.5909 9.24124C65.8253 9.08997 66.0895 9.01433 66.3835 9.01433C66.4389 9.01433 66.5081 9.01539 66.5912 9.01752C66.6743 9.01965 66.7372 9.02285 66.7798 9.02711V9.79416C66.7542 9.78776 66.6956 9.77818 66.604 9.76539C66.5145 9.75048 66.4197 9.74302 66.3196 9.74302C66.0809 9.74302 65.8679 9.79309 65.6804 9.89323C65.495 9.99124 65.348 10.1276 65.2393 10.3023C65.1328 10.4749 65.0795 10.672 65.0795 10.8936V14.0001H64.3253ZM69.3127 14.1024C68.8397 14.1024 68.4317 13.998 68.0886 13.7892C67.7477 13.5782 67.4846 13.2842 67.2992 12.9071C67.116 12.5278 67.0244 12.0868 67.0244 11.5839C67.0244 11.0811 67.116 10.6379 67.2992 10.2544C67.4846 9.86873 67.7424 9.5683 68.0727 9.3531C68.405 9.13578 68.7928 9.02711 69.236 9.02711C69.4917 9.02711 69.7442 9.06972 69.9935 9.15495C70.2428 9.24018 70.4697 9.37867 70.6742 9.57043C70.8788 9.76007 71.0418 10.0115 71.1632 10.3247C71.2847 10.6379 71.3454 11.0236 71.3454 11.4817V11.8013H67.5613V11.1493H70.5783C70.5783 10.8723 70.5229 10.6251 70.4122 10.4078C70.3035 10.1905 70.1479 10.0189 69.9455 9.89323C69.7452 9.76752 69.5087 9.70467 69.236 9.70467C68.9356 9.70467 68.6756 9.77924 68.4562 9.92839C68.2389 10.0754 68.0716 10.2672 67.9544 10.5037C67.8372 10.7402 67.7786 10.9937 67.7786 11.2643V11.699C67.7786 12.0697 67.8425 12.384 67.9704 12.6418C68.1004 12.8975 68.2804 13.0925 68.5105 13.2267C68.7406 13.3588 69.008 13.4248 69.3127 13.4248C69.5109 13.4248 69.6899 13.3971 69.8497 13.3417C70.0116 13.2842 70.1511 13.199 70.2683 13.0861C70.3855 12.971 70.4761 12.8282 70.54 12.6578L71.2687 12.8623C71.192 13.1095 71.0631 13.3268 70.882 13.5143C70.7009 13.6997 70.4771 13.8446 70.2108 13.949C69.9445 14.0513 69.6451 14.1024 69.3127 14.1024ZM69.8624 8.50296L69.1977 7.60808L68.5329 8.50296H67.817V8.45183L68.8525 7.12228H69.5428L70.5783 8.45183V8.50296H69.8624ZM72.977 11.047V14.0001H72.2228V9.09103H72.9515V9.85808H73.0154C73.1304 9.60879 73.3051 9.4085 73.5395 9.25722C73.7739 9.10382 74.0765 9.02711 74.4472 9.02711C74.7796 9.02711 75.0704 9.09529 75.3197 9.23166C75.569 9.36589 75.7629 9.57043 75.9014 9.84529C76.0399 10.118 76.1091 10.4632 76.1091 10.8808V14.0001H75.3549V10.9319C75.3549 10.5463 75.2547 10.2459 75.0544 10.0307C74.8542 9.81333 74.5793 9.70467 74.2299 9.70467C73.9891 9.70467 73.7739 9.75687 73.5843 9.86127C73.3968 9.96568 73.2487 10.118 73.14 10.3183C73.0314 10.5186 72.977 10.7615 72.977 11.047Z" fill="white"/>
<defs>
<linearGradient id="paint0_linear_2366_3218" x1="25.7269" y1="20.0006" x2="18.9521" y2="20.0006" gradientUnits="userSpaceOnUse">
<stop stop-color="#FFBC00"/>
<stop offset="1" stop-color="#FFDA03"/>
</linearGradient>
<linearGradient id="paint1_linear_2366_3218" x1="20.5433" y1="23.5536" x2="11.1381" y2="30.7097" gradientUnits="userSpaceOnUse">
<stop stop-color="#E22652"/>
<stop offset="1" stop-color="#FF3A44"/>
</linearGradient>
<linearGradient id="paint2_linear_2366_3218" x1="10.2218" y1="10.1967" x2="16.5237" y2="15.3117" gradientUnits="userSpaceOnUse">
<stop stop-color="#0ED574"/>
<stop offset="1" stop-color="#07F076"/>
</linearGradient>
</defs>
</svg>
