<svg width="77" height="32" viewBox="0 0 77 32" fill="none" xmlns="http://www.w3.org/2000/svg">
<g clip-path="url(#clip0_2358_1125)">
<path d="M75.68 8.05858H69.1883C68.2393 6.9788 66.972 6.18493 65.5323 5.82602C64.9737 5.68611 64.3887 5.61209 63.7855 5.61209C59.7392 5.61209 56.4745 8.95181 56.5952 13.0235C56.7118 16.9371 60.0048 20.068 63.9193 19.997C64.4759 19.9868 65.0153 19.9138 65.5323 19.7841C63.9984 21.0169 62.0497 21.754 59.9308 21.754C55.0653 21.754 51.1082 17.8739 50.9835 13.0387C50.9825 12.9607 50.9805 12.8816 50.9805 12.8035C50.9805 12.7255 50.9815 12.6464 50.9835 12.5683C51.1082 5.60601 56.7909 -0.000732422 63.7855 -0.000732422C69.1792 -0.000732422 73.7942 3.33492 75.68 8.05757V8.05858Z" fill="url(#paint0_linear_2358_1125)"/>
<path d="M76.8539 12.6678V25.4791H71.5018V22.5257C69.1385 24.376 66.1598 25.4791 62.9266 25.4791C62.9175 25.4791 62.9084 25.4791 62.9003 25.4791C61.0682 25.4761 59.2575 25.0229 57.6455 24.152C55.9472 23.2344 54.4751 21.9518 53.3325 20.4107C55.2406 21.9052 57.6444 22.7964 60.2561 22.7964C61.199 22.7964 62.1145 22.6808 62.9895 22.4618C65.6417 21.7987 67.9229 20.1928 69.4528 18.021H64.0449V12.6667L76.8539 12.6678Z" fill="#935CFF"/>
<path d="M28.8364 25.627V0.000244141H39.8053C41.3626 0.000244141 42.7485 0.354087 43.9642 1.06177C45.1788 1.76946 46.146 2.73771 46.8668 3.9645C47.5867 5.1913 47.9466 6.5722 47.9466 8.10619C47.9466 9.64019 47.6809 10.6135 46.9621 11.8758C46.2423 13.1381 45.2142 14.1621 43.9986 14.8931C42.783 15.6251 41.3636 15.9556 39.8063 15.9556H35.2075V25.627H28.8374H28.8364ZM35.2065 11.2208H39.0632C39.6289 11.2208 40.1429 11.0799 40.6063 10.796C41.0696 10.5131 41.4417 10.1279 41.7245 9.63816C42.0074 9.14947 42.1494 8.58373 42.1494 7.94093C42.1494 7.29813 42.0074 6.70603 41.7245 6.2437C41.4417 5.78036 41.0686 5.42043 40.6063 5.16392C40.1429 4.90741 39.6289 4.77763 39.0632 4.77763H35.2065V11.2208Z" fill="url(#paint1_linear_2358_1125)"/>
<path d="M19.1526 25.627H25.5226L16.0411 0.000244141H9.59802L0.043457 25.627H6.4135L8.02249 20.7209H17.4017L19.1526 25.627ZM10.034 16.0357C10.034 16.0357 12.6173 8.57968 12.7805 8.05854C12.9366 8.56649 15.6092 16.0357 15.6092 16.0357H10.034Z" fill="url(#paint2_linear_2358_1125)"/>
<path d="M2.30044 31.039C2.30044 31.2945 2.20919 31.5084 2.03176 31.6818C1.85434 31.8552 1.63535 31.9413 1.3758 31.9413H0V28.7527H1.27543C1.52585 28.7527 1.73572 28.8348 1.90909 29.0031C2.08246 29.1714 2.16863 29.3762 2.16863 29.6226C2.16863 29.9045 2.05508 30.1285 1.82291 30.2877C2.1149 30.4286 2.30145 30.6973 2.30145 31.039H2.30044ZM0.423791 29.1481V30.1224H1.27543C1.5441 30.1224 1.7489 29.9085 1.7489 29.6348C1.7489 29.503 1.70328 29.3884 1.60797 29.2931C1.51673 29.1978 1.40723 29.1471 1.27543 29.1471H0.423791V29.1481ZM1.3758 31.5439C1.66272 31.5439 1.88171 31.3158 1.88171 31.0248C1.88171 30.8839 1.83204 30.7602 1.73166 30.6608C1.63636 30.5604 1.51774 30.5107 1.3758 30.5107H0.423791V31.5449H1.3758V31.5439Z" fill="#101119"/>
<path d="M5.06504 29.6631H5.46146V31.9403H5.06504V31.6118C4.90586 31.8713 4.6595 31.9991 4.32695 31.9991C3.79366 31.9991 3.44287 31.6392 3.44287 31.0602V29.6621H3.83929V31.0379C3.83929 31.407 4.05321 31.6209 4.40401 31.6209C4.80042 31.6209 5.06403 31.3796 5.06403 30.8696V29.6621L5.06504 29.6631Z" fill="#101119"/>
<path d="M6.67725 29.1168C6.67725 28.9708 6.79587 28.8481 6.94592 28.8481C7.09597 28.8481 7.21053 28.9708 7.21053 29.1168C7.21053 29.2628 7.09191 29.3814 6.94592 29.3814C6.79992 29.3814 6.67725 29.2628 6.67725 29.1168ZM6.74517 31.9415V29.6643H7.14159V31.9415H6.74517Z" fill="#101119"/>
<path d="M8.43115 31.9403V28.6147H8.82757V31.9403H8.43115Z" fill="#101119"/>
<path d="M12.0022 28.7517H12.3987V31.9404H12.0022V31.549C11.8066 31.8491 11.5197 32.0002 11.1415 32.0002C10.8231 32.0002 10.5494 31.8866 10.3263 31.6544C10.1033 31.4223 9.98975 31.1353 9.98975 30.8028C9.98975 30.4702 10.1033 30.1884 10.3263 29.9552C10.5494 29.723 10.8231 29.6044 11.1415 29.6044C11.5197 29.6044 11.8066 29.7544 12.0022 30.0556V28.7527V28.7517ZM11.7701 31.3847C11.9252 31.2256 12.0022 31.0339 12.0022 30.8018C12.0022 30.5696 11.9252 30.378 11.7701 30.2228C11.615 30.0637 11.4244 29.9856 11.1912 29.9856C10.958 29.9856 10.7724 30.0627 10.6173 30.2228C10.4622 30.378 10.3851 30.5686 10.3851 30.8018C10.3851 31.035 10.4622 31.2256 10.6173 31.3847C10.7724 31.5399 10.963 31.6169 11.1912 31.6169C11.4193 31.6169 11.615 31.5399 11.7701 31.3847Z" fill="#101119"/>
<path d="M17.5856 28.7517V29.1522H16.6427V31.9404H16.224V29.1522H15.2852V28.7517H17.5856Z" fill="#101119"/>
<path d="M18.7343 30.0454C18.8661 29.7635 19.1034 29.6216 19.445 29.6216V30.0363C19.2493 30.0271 19.0851 30.0768 18.9442 30.1914C18.8033 30.3049 18.7343 30.4834 18.7343 30.7338V31.9413H18.3379V29.6642H18.7343V30.0464V30.0454Z" fill="#101119"/>
<path d="M22.0855 29.6631H22.482V31.9403H22.0855V31.6118C21.9264 31.8713 21.68 31.9991 21.3475 31.9991C20.8142 31.9991 20.4634 31.6392 20.4634 31.0602V29.6621H20.8598V31.0379C20.8598 31.407 21.0737 31.6209 21.4245 31.6209C21.8209 31.6209 22.0845 31.3796 22.0845 30.8696V29.6621L22.0855 29.6631Z" fill="#101119"/>
<path d="M24.5553 30.6192C24.9112 30.6963 25.3847 30.8291 25.3796 31.3157C25.3796 31.5206 25.2975 31.6889 25.1383 31.8125C24.9791 31.9352 24.7784 31.9991 24.528 31.9991C24.0859 31.9991 23.7534 31.7892 23.6216 31.4658L23.9633 31.2701C24.0362 31.4891 24.2502 31.625 24.528 31.625C24.7875 31.625 24.9791 31.5297 24.9791 31.3147C24.9791 31.1373 24.7784 31.0369 24.528 30.9781C24.168 30.8828 23.7037 30.7642 23.7037 30.2816C23.7037 30.0859 23.7808 29.9217 23.9318 29.7939C24.0869 29.6662 24.2775 29.6023 24.5107 29.6023C24.8798 29.6023 25.1849 29.7797 25.3309 30.0758L24.9984 30.2623C24.9163 30.0667 24.752 29.9703 24.5107 29.9703C24.2877 29.9703 24.1052 30.0798 24.1052 30.2755C24.1052 30.4529 24.3059 30.5493 24.5564 30.6172L24.5553 30.6192Z" fill="#101119"/>
<path d="M27.6794 30.0456H27.0731V31.2805C27.0731 31.6313 27.2739 31.6039 27.6794 31.5857V31.9405C26.987 32.0318 26.6777 31.8452 26.6777 31.2805V30.0456H26.2266V29.6634H26.6777V29.1443L27.0741 29.0256V29.6634H27.6804V30.0456H27.6794Z" fill="#101119"/>
<path d="M30.7085 30.7338V30.3516H32.3712V30.7338H30.7085Z" fill="#101119"/>
<path d="M37.6593 31.9404L37.3997 31.2256H35.9651L35.7056 31.9404H35.2544L36.4436 28.7517H36.9222L38.1114 31.9404H37.6603H37.6593ZM36.1101 30.8291H37.2537L36.6799 29.2576L36.1101 30.8291Z" fill="#101119"/>
<path d="M39.3441 31.6586C39.116 31.4264 39.0024 31.1436 39.0024 30.8019C39.0024 30.4602 39.116 30.1773 39.3441 29.9502C39.5722 29.718 39.8591 29.6045 40.2008 29.6045C40.652 29.6045 41.0302 29.8367 41.2076 30.2007L40.875 30.3923C40.7615 30.151 40.506 29.9918 40.2008 29.9918C39.9727 29.9918 39.7821 30.0688 39.627 30.224C39.4769 30.3791 39.3989 30.5697 39.3989 30.8029C39.3989 31.0361 39.4759 31.2216 39.627 31.3768C39.7821 31.5319 39.9727 31.6089 40.2008 31.6089C40.506 31.6089 40.7615 31.4538 40.8882 31.2125L41.2248 31.4082C41.0291 31.7681 40.6418 32.0003 40.1998 32.0003C39.8581 32.0003 39.5712 31.8867 39.3431 31.6586H39.3441Z" fill="#101119"/>
<path d="M44.3232 30.5422V31.9404H43.9268V30.5645C43.9268 30.1955 43.7129 29.9815 43.3621 29.9815C42.9657 29.9815 42.7021 30.2228 42.7021 30.7328V31.9404H42.3057V28.7517H42.7021V29.9907C42.8613 29.7311 43.1076 29.6034 43.4402 29.6034C43.9735 29.6034 44.3242 29.9633 44.3242 30.5422H44.3232Z" fill="#101119"/>
<path d="M45.4893 29.1168C45.4893 28.9708 45.6079 28.8481 45.7579 28.8481C45.908 28.8481 46.0225 28.9708 46.0225 29.1168C46.0225 29.2628 45.9039 29.3814 45.7579 29.3814C45.6119 29.3814 45.4893 29.2628 45.4893 29.1168ZM45.5572 31.9415V29.6643H45.9536V31.9415H45.5572Z" fill="#101119"/>
<path d="M47.5198 30.9843C47.5969 31.3899 47.9111 31.6271 48.3441 31.6271C48.6452 31.6271 48.8632 31.5176 49 31.2946L49.3366 31.4862C49.1136 31.8279 48.781 32.0013 48.3349 32.0013C47.975 32.0013 47.679 31.8877 47.4509 31.6647C47.2278 31.4365 47.1143 31.1496 47.1143 30.8039C47.1143 30.4581 47.2238 30.1753 47.4468 29.9471C47.6698 29.719 47.9568 29.6055 48.3076 29.6055C48.6401 29.6055 48.9138 29.7241 49.1227 29.9603C49.3366 30.1925 49.4421 30.4754 49.4421 30.8079C49.4421 30.8667 49.437 30.9265 49.4279 30.9854H47.5188L47.5198 30.9843ZM47.5198 30.6386H49.0416C48.9737 30.2057 48.6726 29.9786 48.3086 29.9786C47.8848 29.9786 47.5887 30.2381 47.5208 30.6386H47.5198Z" fill="#101119"/>
<path d="M52.0845 29.6636H52.5124L51.6009 31.9407H51.1366L50.2251 29.6636H50.6529L51.3677 31.518L52.0825 29.6636H52.0845Z" fill="#101119"/>
<path d="M53.8103 30.9843C53.8874 31.3899 54.2017 31.6271 54.6346 31.6271C54.9357 31.6271 55.1537 31.5176 55.2906 31.2946L55.6272 31.4862C55.4041 31.8279 55.0716 32.0013 54.6255 32.0013C54.2655 32.0013 53.9695 31.8877 53.7414 31.6647C53.5183 31.4365 53.4048 31.1496 53.4048 30.8039C53.4048 30.4581 53.5143 30.1753 53.7373 29.9471C53.9604 29.719 54.2473 29.6055 54.5981 29.6055C54.9306 29.6055 55.2044 29.7241 55.4132 29.9603C55.6272 30.1925 55.7326 30.4754 55.7326 30.8079C55.7326 30.8667 55.7275 30.9265 55.7184 30.9854H53.8093L53.8103 30.9843ZM53.8103 30.6386H55.3321C55.2642 30.2057 54.9631 29.9786 54.5991 29.9786C54.1753 29.9786 53.8793 30.2381 53.8113 30.6386H53.8103Z" fill="#101119"/>
<path d="M59.4214 31.9404L58.5059 28.7517H58.952L59.6809 31.3756L60.4555 28.7517H60.8833L61.6579 31.3756L62.3869 28.7517H62.833L61.9175 31.9404H61.4258L60.6694 29.3935L59.9131 31.9404H59.4214Z" fill="#101119"/>
<path d="M63.9358 30.9843C64.0129 31.3899 64.3272 31.6271 64.7601 31.6271C65.0612 31.6271 65.2792 31.5176 65.416 31.2946L65.7526 31.4862C65.5296 31.8279 65.197 32.0013 64.751 32.0013C64.391 32.0013 64.095 31.8877 63.8669 31.6647C63.6438 31.4365 63.5303 31.1496 63.5303 30.8039C63.5303 30.4581 63.6398 30.1753 63.8628 29.9471C64.0859 29.719 64.3728 29.6055 64.7236 29.6055C65.0561 29.6055 65.3299 29.7241 65.5387 29.9603C65.7526 30.1925 65.8581 30.4754 65.8581 30.8079C65.8581 30.8667 65.853 30.9265 65.8439 30.9854H63.9348L63.9358 30.9843ZM63.9358 30.6386H65.4576C65.3897 30.2057 65.0886 29.9786 64.7246 29.9786C64.3008 29.9786 64.0048 30.2381 63.9368 30.6386H63.9358Z" fill="#101119"/>
<path d="M68.8782 29.6633H69.2746V31.9405H68.8782V31.5491C68.6825 31.8492 68.3956 32.0003 68.0175 32.0003C67.6991 32.0003 67.4254 31.8867 67.2023 31.6546C66.9793 31.4224 66.8657 31.1354 66.8657 30.8029C66.8657 30.4703 66.9793 30.1885 67.2023 29.9553C67.4254 29.7231 67.6991 29.6045 68.0175 29.6045C68.3956 29.6045 68.6825 29.7545 68.8782 30.0557V29.6643V29.6633ZM68.6461 31.3849C68.8012 31.2257 68.8782 31.0341 68.8782 30.8019C68.8782 30.5697 68.8012 30.3781 68.6461 30.223C68.4909 30.0638 68.3003 29.9857 68.0671 29.9857C67.834 29.9857 67.6484 30.0628 67.4933 30.223C67.3382 30.3781 67.2611 30.5687 67.2611 30.8019C67.2611 31.0351 67.3382 31.2257 67.4933 31.3849C67.6484 31.54 67.839 31.617 68.0671 31.617C68.2953 31.617 68.4909 31.54 68.6461 31.3849Z" fill="#101119"/>
<path d="M70.5586 31.9403V28.6147H70.955V31.9403H70.5586Z" fill="#101119"/>
<path d="M73.4821 30.0456H72.8759V31.2805C72.8759 31.6313 73.0766 31.6039 73.4821 31.5857V31.9405C72.7897 32.0318 72.4805 31.8452 72.4805 31.2805V30.0456H72.0293V29.6634H72.4805V29.1443L72.8769 29.0256V29.6634H73.4832V30.0456H73.4821Z" fill="#101119"/>
<path d="M76.666 30.5422V31.9404H76.2696V30.5645C76.2696 30.1955 76.0557 29.9815 75.7049 29.9815C75.3085 29.9815 75.0449 30.2228 75.0449 30.7328V31.9404H74.6484V28.7517H75.0449V29.9907C75.204 29.7311 75.4504 29.6034 75.7829 29.6034C76.3162 29.6034 76.667 29.9633 76.667 30.5422H76.666Z" fill="#101119"/>
<path d="M2.30044 31.039C2.30044 31.2945 2.20919 31.5084 2.03176 31.6818C1.85434 31.8552 1.63535 31.9413 1.3758 31.9413H0V28.7527H1.27543C1.52585 28.7527 1.73572 28.8348 1.90909 29.0031C2.08246 29.1714 2.16863 29.3762 2.16863 29.6226C2.16863 29.9045 2.05508 30.1285 1.82291 30.2877C2.1149 30.4286 2.30145 30.6973 2.30145 31.039H2.30044ZM0.423791 29.1481V30.1224H1.27543C1.5441 30.1224 1.7489 29.9085 1.7489 29.6348C1.7489 29.503 1.70328 29.3884 1.60797 29.2931C1.51673 29.1978 1.40723 29.1471 1.27543 29.1471H0.423791V29.1481ZM1.3758 31.5439C1.66272 31.5439 1.88171 31.3158 1.88171 31.0248C1.88171 30.8839 1.83204 30.7602 1.73166 30.6608C1.63636 30.5604 1.51774 30.5107 1.3758 30.5107H0.423791V31.5449H1.3758V31.5439Z" fill="#F06D27"/>
<path d="M5.06504 29.6631H5.46146V31.9403H5.06504V31.6118C4.90586 31.8713 4.6595 31.9991 4.32695 31.9991C3.79366 31.9991 3.44287 31.6392 3.44287 31.0602V29.6621H3.83929V31.0379C3.83929 31.407 4.05321 31.6209 4.40401 31.6209C4.80042 31.6209 5.06403 31.3796 5.06403 30.8696V29.6621L5.06504 29.6631Z" fill="#F06D27"/>
<path d="M6.67725 29.1168C6.67725 28.9708 6.79587 28.8481 6.94592 28.8481C7.09597 28.8481 7.21053 28.9708 7.21053 29.1168C7.21053 29.2628 7.09191 29.3814 6.94592 29.3814C6.79992 29.3814 6.67725 29.2628 6.67725 29.1168ZM6.74517 31.9415V29.6643H7.14159V31.9415H6.74517Z" fill="#F06D27"/>
<path d="M8.43115 31.9403V28.6147H8.82757V31.9403H8.43115Z" fill="#F06D27"/>
<path d="M12.0022 28.7517H12.3987V31.9404H12.0022V31.549C11.8066 31.8491 11.5197 32.0002 11.1415 32.0002C10.8231 32.0002 10.5494 31.8866 10.3263 31.6544C10.1033 31.4223 9.98975 31.1353 9.98975 30.8028C9.98975 30.4702 10.1033 30.1884 10.3263 29.9552C10.5494 29.723 10.8231 29.6044 11.1415 29.6044C11.5197 29.6044 11.8066 29.7544 12.0022 30.0556V28.7527V28.7517ZM11.7701 31.3847C11.9252 31.2256 12.0022 31.0339 12.0022 30.8018C12.0022 30.5696 11.9252 30.378 11.7701 30.2228C11.615 30.0637 11.4244 29.9856 11.1912 29.9856C10.958 29.9856 10.7724 30.0627 10.6173 30.2228C10.4622 30.378 10.3851 30.5686 10.3851 30.8018C10.3851 31.035 10.4622 31.2256 10.6173 31.3847C10.7724 31.5399 10.963 31.6169 11.1912 31.6169C11.4193 31.6169 11.615 31.5399 11.7701 31.3847Z" fill="#F06D27"/>
<path d="M17.5856 28.7517V29.1522H16.6427V31.9404H16.224V29.1522H15.2852V28.7517H17.5856Z" fill="#F06D27"/>
<path d="M18.7343 30.0454C18.8661 29.7635 19.1034 29.6216 19.445 29.6216V30.0363C19.2493 30.0271 19.0851 30.0768 18.9442 30.1914C18.8033 30.3049 18.7343 30.4834 18.7343 30.7338V31.9413H18.3379V29.6642H18.7343V30.0464V30.0454Z" fill="#F06D27"/>
<path d="M22.0855 29.6631H22.482V31.9403H22.0855V31.6118C21.9264 31.8713 21.68 31.9991 21.3475 31.9991C20.8142 31.9991 20.4634 31.6392 20.4634 31.0602V29.6621H20.8598V31.0379C20.8598 31.407 21.0737 31.6209 21.4245 31.6209C21.8209 31.6209 22.0845 31.3796 22.0845 30.8696V29.6621L22.0855 29.6631Z" fill="#F06D27"/>
<path d="M24.5553 30.6192C24.9112 30.6963 25.3847 30.8291 25.3796 31.3157C25.3796 31.5206 25.2975 31.6889 25.1383 31.8125C24.9791 31.9352 24.7784 31.9991 24.528 31.9991C24.0859 31.9991 23.7534 31.7892 23.6216 31.4658L23.9633 31.2701C24.0362 31.4891 24.2502 31.625 24.528 31.625C24.7875 31.625 24.9791 31.5297 24.9791 31.3147C24.9791 31.1373 24.7784 31.0369 24.528 30.9781C24.168 30.8828 23.7037 30.7642 23.7037 30.2816C23.7037 30.0859 23.7808 29.9217 23.9318 29.7939C24.0869 29.6662 24.2775 29.6023 24.5107 29.6023C24.8798 29.6023 25.1849 29.7797 25.3309 30.0758L24.9984 30.2623C24.9163 30.0667 24.752 29.9703 24.5107 29.9703C24.2877 29.9703 24.1052 30.0798 24.1052 30.2755C24.1052 30.4529 24.3059 30.5493 24.5564 30.6172L24.5553 30.6192Z" fill="#F06D27"/>
<path d="M27.6794 30.0456H27.0731V31.2805C27.0731 31.6313 27.2739 31.6039 27.6794 31.5857V31.9405C26.987 32.0318 26.6777 31.8452 26.6777 31.2805V30.0456H26.2266V29.6634H26.6777V29.1443L27.0741 29.0256V29.6634H27.6804V30.0456H27.6794Z" fill="#F06D27"/>
<path d="M30.7085 30.7338V30.3516H32.3712V30.7338H30.7085Z" fill="#F06D27"/>
<path d="M37.6593 31.9404L37.3997 31.2256H35.9651L35.7056 31.9404H35.2544L36.4436 28.7517H36.9222L38.1114 31.9404H37.6603H37.6593ZM36.1101 30.8291H37.2537L36.6799 29.2576L36.1101 30.8291Z" fill="#F06D27"/>
<path d="M39.3441 31.6586C39.116 31.4264 39.0024 31.1436 39.0024 30.8019C39.0024 30.4602 39.116 30.1773 39.3441 29.9502C39.5722 29.718 39.8591 29.6045 40.2008 29.6045C40.652 29.6045 41.0302 29.8367 41.2076 30.2007L40.875 30.3923C40.7615 30.151 40.506 29.9918 40.2008 29.9918C39.9727 29.9918 39.7821 30.0688 39.627 30.224C39.4769 30.3791 39.3989 30.5697 39.3989 30.8029C39.3989 31.0361 39.4759 31.2216 39.627 31.3768C39.7821 31.5319 39.9727 31.6089 40.2008 31.6089C40.506 31.6089 40.7615 31.4538 40.8882 31.2125L41.2248 31.4082C41.0291 31.7681 40.6418 32.0003 40.1998 32.0003C39.8581 32.0003 39.5712 31.8867 39.3431 31.6586H39.3441Z" fill="#F06D27"/>
<path d="M44.3232 30.5422V31.9404H43.9268V30.5645C43.9268 30.1955 43.7129 29.9815 43.3621 29.9815C42.9657 29.9815 42.7021 30.2228 42.7021 30.7328V31.9404H42.3057V28.7517H42.7021V29.9907C42.8613 29.7311 43.1076 29.6034 43.4402 29.6034C43.9735 29.6034 44.3242 29.9633 44.3242 30.5422H44.3232Z" fill="#F06D27"/>
<path d="M45.4893 29.1168C45.4893 28.9708 45.6079 28.8481 45.7579 28.8481C45.908 28.8481 46.0225 28.9708 46.0225 29.1168C46.0225 29.2628 45.9039 29.3814 45.7579 29.3814C45.6119 29.3814 45.4893 29.2628 45.4893 29.1168ZM45.5572 31.9415V29.6643H45.9536V31.9415H45.5572Z" fill="#F06D27"/>
<path d="M47.5198 30.9843C47.5969 31.3899 47.9111 31.6271 48.3441 31.6271C48.6452 31.6271 48.8632 31.5176 49 31.2946L49.3366 31.4862C49.1136 31.8279 48.781 32.0013 48.3349 32.0013C47.975 32.0013 47.679 31.8877 47.4509 31.6647C47.2278 31.4365 47.1143 31.1496 47.1143 30.8039C47.1143 30.4581 47.2238 30.1753 47.4468 29.9471C47.6698 29.719 47.9568 29.6055 48.3076 29.6055C48.6401 29.6055 48.9138 29.7241 49.1227 29.9603C49.3366 30.1925 49.4421 30.4754 49.4421 30.8079C49.4421 30.8667 49.437 30.9265 49.4279 30.9854H47.5188L47.5198 30.9843ZM47.5198 30.6386H49.0416C48.9737 30.2057 48.6726 29.9786 48.3086 29.9786C47.8848 29.9786 47.5887 30.2381 47.5208 30.6386H47.5198Z" fill="#F06D27"/>
<path d="M52.0845 29.6636H52.5124L51.6009 31.9407H51.1366L50.2251 29.6636H50.6529L51.3677 31.518L52.0825 29.6636H52.0845Z" fill="#F06D27"/>
<path d="M53.8103 30.9843C53.8874 31.3899 54.2017 31.6271 54.6346 31.6271C54.9357 31.6271 55.1537 31.5176 55.2906 31.2946L55.6272 31.4862C55.4041 31.8279 55.0716 32.0013 54.6255 32.0013C54.2655 32.0013 53.9695 31.8877 53.7414 31.6647C53.5183 31.4365 53.4048 31.1496 53.4048 30.8039C53.4048 30.4581 53.5143 30.1753 53.7373 29.9471C53.9604 29.719 54.2473 29.6055 54.5981 29.6055C54.9306 29.6055 55.2044 29.7241 55.4132 29.9603C55.6272 30.1925 55.7326 30.4754 55.7326 30.8079C55.7326 30.8667 55.7275 30.9265 55.7184 30.9854H53.8093L53.8103 30.9843ZM53.8103 30.6386H55.3321C55.2642 30.2057 54.9631 29.9786 54.5991 29.9786C54.1753 29.9786 53.8793 30.2381 53.8113 30.6386H53.8103Z" fill="#F06D27"/>
<path d="M59.4214 31.9404L58.5059 28.7517H58.952L59.6809 31.3756L60.4555 28.7517H60.8833L61.6579 31.3756L62.3869 28.7517H62.833L61.9175 31.9404H61.4258L60.6694 29.3935L59.9131 31.9404H59.4214Z" fill="#F06D27"/>
<path d="M63.9358 30.9843C64.0129 31.3899 64.3272 31.6271 64.7601 31.6271C65.0612 31.6271 65.2792 31.5176 65.416 31.2946L65.7526 31.4862C65.5296 31.8279 65.197 32.0013 64.751 32.0013C64.391 32.0013 64.095 31.8877 63.8669 31.6647C63.6438 31.4365 63.5303 31.1496 63.5303 30.8039C63.5303 30.4581 63.6398 30.1753 63.8628 29.9471C64.0859 29.719 64.3728 29.6055 64.7236 29.6055C65.0561 29.6055 65.3299 29.7241 65.5387 29.9603C65.7526 30.1925 65.8581 30.4754 65.8581 30.8079C65.8581 30.8667 65.853 30.9265 65.8439 30.9854H63.9348L63.9358 30.9843ZM63.9358 30.6386H65.4576C65.3897 30.2057 65.0886 29.9786 64.7246 29.9786C64.3008 29.9786 64.0048 30.2381 63.9368 30.6386H63.9358Z" fill="#F06D27"/>
<path d="M68.8782 29.6633H69.2746V31.9405H68.8782V31.5491C68.6825 31.8492 68.3956 32.0003 68.0175 32.0003C67.6991 32.0003 67.4254 31.8867 67.2023 31.6546C66.9793 31.4224 66.8657 31.1354 66.8657 30.8029C66.8657 30.4703 66.9793 30.1885 67.2023 29.9553C67.4254 29.7231 67.6991 29.6045 68.0175 29.6045C68.3956 29.6045 68.6825 29.7545 68.8782 30.0557V29.6643V29.6633ZM68.6461 31.3849C68.8012 31.2257 68.8782 31.0341 68.8782 30.8019C68.8782 30.5697 68.8012 30.3781 68.6461 30.223C68.4909 30.0638 68.3003 29.9857 68.0671 29.9857C67.834 29.9857 67.6484 30.0628 67.4933 30.223C67.3382 30.3781 67.2611 30.5687 67.2611 30.8019C67.2611 31.0351 67.3382 31.2257 67.4933 31.3849C67.6484 31.54 67.839 31.617 68.0671 31.617C68.2953 31.617 68.4909 31.54 68.6461 31.3849Z" fill="#F06D27"/>
<path d="M70.5586 31.9403V28.6147H70.955V31.9403H70.5586Z" fill="#F06D27"/>
<path d="M73.4821 30.0456H72.8759V31.2805C72.8759 31.6313 73.0766 31.6039 73.4821 31.5857V31.9405C72.7897 32.0318 72.4805 31.8452 72.4805 31.2805V30.0456H72.0293V29.6634H72.4805V29.1443L72.8769 29.0256V29.6634H73.4832V30.0456H73.4821Z" fill="#F06D27"/>
<path d="M76.666 30.5422V31.9404H76.2696V30.5645C76.2696 30.1955 76.0557 29.9815 75.7049 29.9815C75.3085 29.9815 75.0449 30.2228 75.0449 30.7328V31.9404H74.6484V28.7517H75.0449V29.9907C75.204 29.7311 75.4504 29.6034 75.7829 29.6034C76.3162 29.6034 76.667 29.9633 76.667 30.5422H76.666Z" fill="#F06D27"/>
</g>
<defs>
<linearGradient id="paint0_linear_2358_1125" x1="63.3302" y1="-6.25737" x2="63.3302" y2="30.9732" gradientUnits="userSpaceOnUse">
<stop stop-color="#F69A00"/>
<stop offset="1" stop-color="#F04400"/>
</linearGradient>
<linearGradient id="paint1_linear_2358_1125" x1="38.391" y1="-6.25741" x2="38.391" y2="30.9732" gradientUnits="userSpaceOnUse">
<stop stop-color="#F69A00"/>
<stop offset="1" stop-color="#F04400"/>
</linearGradient>
<linearGradient id="paint2_linear_2358_1125" x1="12.7825" y1="-6.25741" x2="12.7825" y2="30.9732" gradientUnits="userSpaceOnUse">
<stop stop-color="#F69A00"/>
<stop offset="1" stop-color="#F04400"/>
</linearGradient>
<clipPath id="clip0_2358_1125">
<rect width="76.6667" height="32" fill="white"/>
</clipPath>
</defs>
</svg>
