<svg width="102" height="20" viewBox="0 0 102 20" fill="none" xmlns="http://www.w3.org/2000/svg">
<path fill-rule="evenodd" clip-rule="evenodd" d="M0.331882 0.308962C0.12284 0.548655 0 0.919867 0 1.40159V18.5988C0 19.0805 0.12284 19.4517 0.331882 19.6914L0.385041 19.7474L9.27762 10.1138V9.88656L0.385041 0.25293L0.331882 0.308962Z" fill="#00D7FE"/>
<mask id="mask0_2413_1033" style="mask-type:alpha" maskUnits="userSpaceOnUse" x="9" y="6" width="8" height="8">
<path d="M12.2411 13.3266L9.27783 10.1141V9.8869L12.2425 6.67517L15.8214 8.87754C16.8242 9.49545 16.8242 10.5056 15.8214 11.1227L12.3093 13.2846L12.2411 13.3266Z" fill="white"/>
</mask>
<g mask="url(#mask0_2413_1033)">
<path fill-rule="evenodd" clip-rule="evenodd" d="M12.2411 13.3264L9.27783 10.1139V9.88665L12.2425 6.67493L15.8214 8.8773C16.8242 9.49521 16.8242 10.5053 15.8214 11.1225L12.3093 13.2844L12.2411 13.3264Z" fill="url(#paint0_linear_2413_1033)"/>
</g>
<mask id="mask1_2413_1033" style="mask-type:alpha" maskUnits="userSpaceOnUse" x="0" y="10" width="13" height="10">
<path d="M12.3088 13.2841L9.27728 10L0.331543 19.6912C0.662707 20.0702 1.20866 20.1169 1.82358 19.7387L12.3088 13.2841Z" fill="white"/>
</mask>
<g mask="url(#mask1_2413_1033)">
<path fill-rule="evenodd" clip-rule="evenodd" d="M12.3088 13.2841L9.27728 10L0.331543 19.6912C0.662707 20.0702 1.20866 20.1169 1.82358 19.7387L12.3088 13.2841Z" fill="url(#paint1_linear_2413_1033)"/>
</g>
<mask id="mask2_2413_1033" style="mask-type:alpha" maskUnits="userSpaceOnUse" x="0" y="0" width="13" height="10">
<path d="M12.3088 6.7159L1.82358 0.261313C1.20866 -0.116903 0.662707 -0.0702096 0.331543 0.308785L9.27728 10L12.3088 6.7159Z" fill="white"/>
</mask>
<g mask="url(#mask2_2413_1033)">
<path fill-rule="evenodd" clip-rule="evenodd" d="M12.3088 6.7159L1.82358 0.261313C1.20866 -0.116903 0.662707 -0.0702096 0.331543 0.308785L9.27728 10L12.3088 6.7159Z" fill="url(#paint2_linear_2413_1033)"/>
</g>
<path fill-rule="evenodd" clip-rule="evenodd" d="M84.3985 15.9239H86.1209V3.42295H84.3985V15.9239ZM99.9126 7.92595L97.9382 13.3459H97.8791L95.8299 7.92595H93.9745L97.0474 15.5009L95.2954 19.7149H97.0926L101.828 7.92595H99.9126ZM90.1446 14.5039C89.5797 14.5039 88.7932 14.1989 88.7932 13.4429C88.7932 12.4779 89.7736 12.1079 90.6191 12.1079C91.3769 12.1079 91.7323 12.2849 92.1929 12.5259C92.0591 13.6839 91.1388 14.5039 90.1446 14.5039ZM90.3523 7.65295C89.1052 7.65295 87.8139 8.24795 87.2794 9.56695L88.808 10.2579C89.1348 9.56695 89.7431 9.34095 90.3819 9.34095C91.2726 9.34095 92.1782 9.91995 92.1929 10.9499V11.0779C91.8809 10.8849 91.2136 10.5959 90.3966 10.5959C88.7489 10.5959 87.0708 11.5769 87.0708 13.4099C87.0708 15.0829 88.4222 16.1609 89.936 16.1609C91.0945 16.1609 91.7323 15.5979 92.1339 14.9379H92.1929V15.9029H93.8554V11.1109C93.8554 8.89095 92.3268 7.65295 90.3523 7.65295ZM79.7074 9.44795H77.2575V5.16295H79.7074C80.9951 5.16295 81.7262 6.31795 81.7262 7.30495C81.7262 8.27395 80.9951 9.44795 79.7074 9.44795ZM79.6631 3.42295H75.536V15.9239H77.2575V11.1879H79.6631C81.572 11.1879 83.4486 9.68995 83.4486 7.30495C83.4486 4.91995 81.572 3.42295 79.6631 3.42295ZM57.1576 14.5059C55.9677 14.5059 54.9717 13.4269 54.9717 11.9449C54.9717 10.4469 55.9677 9.35095 57.1576 9.35095C58.3326 9.35095 59.2539 10.4469 59.2539 11.9449C59.2539 13.4269 58.3326 14.5059 57.1576 14.5059ZM59.1348 8.62595H59.0757C58.6889 8.12695 57.9459 7.67595 57.0089 7.67595C55.0455 7.67595 53.2465 9.54395 53.2465 11.9449C53.2465 14.3289 55.0455 16.1819 57.0089 16.1819C57.9459 16.1819 58.6889 15.7309 59.0757 15.2149H59.1348V15.8269C59.1348 17.4549 58.3326 18.3249 57.0385 18.3249C55.9825 18.3249 55.328 17.5029 55.0603 16.8099L53.5585 17.4869C53.9896 18.6149 55.1351 19.9999 57.0385 19.9999C59.0609 19.9999 60.7714 18.7109 60.7714 15.5699V7.93295H59.1348V8.62595ZM61.9612 15.9239H63.6865V3.42195H61.9612V15.9239ZM66.2286 11.7999C66.1843 10.1569 67.4037 9.31895 68.2806 9.31895C68.9655 9.31895 69.5452 9.68895 69.7382 10.2209L66.2286 11.7999ZM71.5825 10.3819C71.2557 9.43195 70.2588 7.67595 68.2215 7.67595C66.1991 7.67595 64.5191 9.39895 64.5191 11.9289C64.5191 14.3129 66.1843 16.1819 68.4145 16.1819C70.2145 16.1819 71.2557 14.9899 71.6868 14.2969L70.3483 13.3299C69.9025 14.0389 69.2923 14.5059 68.4145 14.5059C67.5375 14.5059 66.9126 14.0709 66.5111 13.2179L71.7606 10.8659L71.5825 10.3819ZM29.7597 8.98095V10.7849H33.7446C33.6256 11.7999 33.3135 12.5409 32.8382 13.0569C32.2575 13.6849 31.3502 14.3769 29.7597 14.3769C27.3062 14.3769 25.3871 12.2349 25.3871 9.57695C25.3871 6.91795 27.3062 4.77595 29.7597 4.77595C31.0834 4.77595 32.0499 5.33995 32.7634 6.06495L33.9385 4.79195C32.9415 3.76095 31.6188 2.97095 29.7597 2.97095C26.3988 2.97095 23.5732 5.93595 23.5732 9.57695C23.5732 13.2179 26.3988 16.1819 29.7597 16.1819C31.5736 16.1819 32.9416 15.5379 34.0123 14.3289C35.1126 13.1369 35.4551 11.4619 35.4551 10.1079C35.4551 9.68895 35.4256 9.30295 35.3656 8.98095H29.7597ZM39.9865 14.5059C38.7966 14.5059 37.7702 13.4429 37.7702 11.9289C37.7702 10.3979 38.7966 9.35095 39.9865 9.35095C41.1754 9.35095 42.2019 10.3979 42.2019 11.9289C42.2019 13.4429 41.1754 14.5059 39.9865 14.5059ZM39.9865 7.67595C37.8145 7.67595 36.0449 9.46395 36.0449 11.9289C36.0449 14.3769 37.8145 16.1819 39.9865 16.1819C42.1576 16.1819 43.9271 14.3769 43.9271 11.9289C43.9271 9.46395 42.1576 7.67595 39.9865 7.67595ZM48.5831 14.5059C47.3932 14.5059 46.3668 13.4429 46.3668 11.9289C46.3668 10.3979 47.3932 9.35095 48.5831 9.35095C49.7729 9.35095 50.7985 10.3979 50.7985 11.9289C50.7985 13.4429 49.7729 14.5059 48.5831 14.5059ZM48.5831 7.67595C46.412 7.67595 44.6425 9.46395 44.6425 11.9289C44.6425 14.3769 46.412 16.1819 48.5831 16.1819C50.7542 16.1819 52.5237 14.3769 52.5237 11.9289C52.5237 9.46395 50.7542 7.67595 48.5831 7.67595Z" fill="#191510"/>
<defs>
<linearGradient id="paint0_linear_2413_1033" x1="15.169" y1="10.0005" x2="9.27783" y2="10.0005" gradientUnits="userSpaceOnUse">
<stop stop-color="#FFBC00"/>
<stop offset="1" stop-color="#FFDA03"/>
</linearGradient>
<linearGradient id="paint1_linear_2413_1033" x1="10.6613" y1="13.0902" x2="2.48287" y2="19.3128" gradientUnits="userSpaceOnUse">
<stop stop-color="#E22652"/>
<stop offset="1" stop-color="#FF3A44"/>
</linearGradient>
<linearGradient id="paint2_linear_2413_1033" x1="1.68613" y1="1.47547" x2="7.16598" y2="5.92328" gradientUnits="userSpaceOnUse">
<stop stop-color="#0ED574"/>
<stop offset="1" stop-color="#07F076"/>
</linearGradient>
</defs>
</svg>
