<svg width="94" height="22" viewBox="0 0 94 22" fill="none" xmlns="http://www.w3.org/2000/svg">
<path fill-rule="evenodd" clip-rule="evenodd" d="M13.6591 11.5804C13.6792 9.88389 14.5002 8.31686 15.8343 7.4283C14.9889 6.12019 13.6235 5.32056 12.1502 5.27062C10.6001 5.09436 9.09741 6.27545 8.30752 6.27545C7.50235 6.27545 6.28619 5.28812 4.9766 5.31731C3.25351 5.37762 1.68606 6.4132 0.847747 8.04518C-0.937484 11.3936 0.394138 16.3146 2.10424 19.0213C2.95984 20.3466 3.95979 21.8271 5.26821 21.7746C6.54857 21.717 7.02676 20.8901 8.57227 20.8901C10.1034 20.8901 10.5521 21.7746 11.887 21.7412C13.2609 21.717 14.1265 20.4099 14.9521 19.072C15.5669 18.1277 16.0399 17.084 16.3537 15.9795C14.722 15.2319 13.661 13.4997 13.6591 11.5804Z" fill="#191510"/>
<path fill-rule="evenodd" clip-rule="evenodd" d="M11.1375 3.49062C11.8866 2.51641 12.2556 1.26423 12.1662 0C11.0218 0.13022 9.96462 0.72278 9.2054 1.65961C8.4557 2.58392 8.07591 3.79316 8.14967 5.021C9.30947 5.03394 10.4107 4.46988 11.1375 3.49062Z" fill="#191510"/>
<path d="M39.6184 8.97661C41.7394 8.97662 43.1376 10.793 43.1376 13.5987C43.1376 16.4122 41.7476 18.2198 39.6499 18.2198C38.5657 18.2812 37.5444 17.666 37.0204 16.6358H36.9807V21.1202H35.2653V9.07134H36.9258V10.5772H36.9573C37.5045 9.55345 38.527 8.93848 39.6184 8.97661ZM48.8167 8.97662C50.9378 8.97662 52.3359 10.793 52.3359 13.5987C52.3359 16.4122 50.9459 18.2198 48.8483 18.2198C47.764 18.2812 46.7427 17.666 46.2187 16.6358H46.1791V21.1202H44.4636V9.07134H46.1241V10.5772H46.1556C46.7028 9.55345 47.7252 8.93848 48.8167 8.97662ZM61.1322 5.5C63.5544 5.5 65.2148 6.97168 65.2707 9.11426H63.539C63.4354 7.875 62.4898 7.12696 61.1079 7.12696C59.7259 7.12696 58.7803 7.8838 58.7803 8.98536C58.7803 9.86329 59.3843 10.3799 60.8618 10.7754L62.1247 11.1113C64.4765 11.7138 65.4537 12.7373 65.4537 14.5537C65.4537 16.8769 63.7455 18.332 61.0285 18.332C58.4865 18.332 56.7701 16.9111 56.6592 14.665L58.4153 14.6651C58.5424 15.8965 59.6466 16.7051 61.1556 16.7051C62.6016 16.7051 63.6418 15.8965 63.6418 14.7861C63.6418 13.8223 63.0144 13.2451 61.5288 12.8496L60.0433 12.4619C57.9384 11.9111 56.9612 10.8447 56.9612 9.11426C56.9612 6.97168 58.6848 5.5 61.1322 5.5ZM75.6292 8.96002C78.0523 8.96002 79.5938 10.75 79.5938 13.5987C79.5938 16.4551 78.0604 18.2374 75.6292 18.2374C73.1989 18.2374 71.6656 16.4551 71.6656 13.5987C71.6656 10.7501 73.2143 8.96002 75.6292 8.96002ZM89.5204 8.96001C91.8326 8.96001 93.2867 10.6807 93.2867 13.4258V14.0625H87.384V14.1749C87.3289 14.8489 87.5438 15.5161 87.9739 16.0067C88.404 16.4974 89.008 16.7642 89.6322 16.7393C90.4647 16.8238 91.2495 16.3059 91.5622 15.4659L93.1911 15.4659C92.9603 17.1094 91.4829 18.2374 89.5925 18.2374C87.1614 18.2374 85.6523 16.4727 85.6523 13.6416C85.6523 10.8018 87.1695 8.96001 89.5204 8.96001ZM69.1559 6.92876V9.07134H70.7452V10.543H69.1559V15.5342C69.1559 16.3096 69.4742 16.6709 70.1728 16.6709C70.3614 16.6674 70.5498 16.653 70.7371 16.6279V18.0908C70.423 18.1544 70.1037 18.1832 69.7842 18.1768C68.0922 18.1768 67.4324 17.4883 67.4324 15.7324V10.543H66.2172V9.07134H67.4324V6.92876H69.1559ZM30.0613 5.70706L34.1998 18.1251H32.3176L31.2692 14.7686H26.8999L25.8507 18.1251H24L28.1385 5.70706H30.0613ZM84.6941 8.9766C84.8918 8.97585 85.089 8.99911 85.2819 9.04594V10.7842C85.0323 10.7016 84.772 10.6637 84.5111 10.6719C84.0068 10.6498 83.5187 10.8675 83.175 11.268C82.8314 11.6684 82.6664 12.2116 82.7236 12.7549V18.125H81.0081V9.07134H82.6442V10.6123H82.6839C82.9121 9.62033 83.7511 8.93759 84.6941 8.9766ZM75.6292 10.4913C74.2392 10.4913 73.4135 11.6534 73.4135 13.5987C73.4135 15.5606 74.2392 16.7051 75.6292 16.7051C77.0193 16.7051 77.8459 15.5606 77.8459 13.5987C77.8459 11.6446 77.0193 10.4913 75.6292 10.4913ZM39.1659 10.5606C37.8552 10.5606 36.9736 11.7911 36.9736 13.5987C36.9736 15.4229 37.8552 16.6446 39.1659 16.6446C40.5 16.6446 41.3744 15.4483 41.3744 13.5987C41.3744 11.7657 40.5 10.5606 39.1659 10.5606ZM48.3642 10.5606C47.0535 10.5606 46.1719 11.7911 46.1719 13.5987C46.1719 15.4229 47.0535 16.6446 48.3642 16.6446C49.6983 16.6446 50.5727 15.4483 50.5727 13.5987C50.5727 11.7657 49.6983 10.5606 48.3642 10.5606ZM29.1085 7.77251H29.0607L27.3525 13.2198H30.8158L29.1085 7.77251ZM89.5204 10.4659C88.9562 10.4622 88.414 10.7029 88.0143 11.1344C87.6147 11.5659 87.3907 12.1525 87.3921 12.7637H91.5703C91.6014 12.1581 91.3979 11.5658 91.0088 11.1296C90.6197 10.6934 90.0802 10.4528 89.5204 10.4659Z" fill="#191510"/>
</svg>
