<svg width="107" height="33" viewBox="0 0 107 33" fill="none" xmlns="http://www.w3.org/2000/svg">
<path d="M105.768 28.6515C105.768 29.4649 105.45 30.2449 104.883 30.8198C104.316 31.3947 103.547 31.7172 102.745 31.7163H3.82361C2.15404 31.7181 0.799051 30.346 0.796875 28.6515V4.21C0.799049 2.51477 2.1534 1.14155 3.82361 1.14111H102.745C103.546 1.14111 104.315 1.46447 104.882 2.04002C105.449 2.61557 105.768 3.39615 105.767 4.21L105.768 28.6515Z" fill="white"/>
<path d="M102.744 32.4299H3.82217C1.76566 32.4294 0.0976629 30.7393 0.09375 28.652V4.21134C0.0967925 2.123 1.76466 0.431206 3.82217 0.429443H102.743C104.8 0.432086 106.468 2.12336 106.472 4.21134V28.652C106.473 30.7358 104.798 32.4299 102.744 32.4299Z" fill="#A6A6A6"/>
<path d="M105.768 28.6515C105.768 29.4649 105.45 30.2449 104.883 30.8198C104.316 31.3947 103.547 31.7172 102.745 31.7163H3.82361C2.15404 31.7181 0.799051 30.346 0.796875 28.6515V4.21C0.799049 2.51477 2.1534 1.14155 3.82361 1.14111H102.745C103.546 1.14111 104.315 1.46447 104.882 2.04002C105.449 2.61557 105.768 3.39615 105.767 4.21L105.768 28.6515Z" fill="black"/>
<path d="M23.8509 16.2617C23.828 13.6825 25.9316 12.4277 26.0278 12.3693C24.8364 10.6064 22.9899 10.3655 22.3411 10.3463C20.7902 10.1806 19.2859 11.2882 18.4959 11.2882C17.6901 11.2882 16.4736 10.3623 15.1624 10.3895C13.4752 10.4159 11.8967 11.4074 11.031 12.9471C9.24446 16.0864 10.5769 20.6998 12.2886 23.2374C13.1448 24.481 14.1453 25.8678 15.4549 25.819C16.7361 25.7662 17.2147 24.9908 18.7608 24.9908C20.2927 24.9908 20.7421 25.819 22.0777 25.7878C23.4527 25.7662 24.3184 24.5394 25.1447 23.2854C26.1342 21.8618 26.5316 20.4582 26.5473 20.3862C26.5158 20.3749 23.8777 19.3522 23.8509 16.2617ZM21.3279 8.67698C22.017 7.80232 22.4885 6.61235 22.3576 5.40479C21.3603 5.4496 20.113 6.105 19.3947 6.96046C18.7592 7.71429 18.1916 8.94987 18.3382 10.1118C19.4586 10.1966 20.6089 9.53804 21.3279 8.67698Z" fill="white"/>
<path d="M102.748 0.429443H49.7627L70.5162 32.4299H102.748C104.805 32.4281 106.473 30.7373 106.477 28.6496V4.21134C106.473 2.12318 104.806 0.431646 102.748 0.429443Z" fill="url(#paint0_linear_2512_3580)"/>
<path d="M42.4018 25.6396H40.6113L39.6305 22.5115H36.2214L35.2871 25.6396H33.5439L36.9223 14.9902H39.0085L42.4018 25.6396ZM39.3349 21.1992L38.4479 18.4184C38.3541 18.1343 38.1775 17.4653 37.9189 16.4122H37.8873C37.7833 16.8651 37.6169 17.5341 37.3891 18.4184L36.5171 21.1992H39.3349ZM51.0728 21.7057C51.0728 23.0117 50.7235 24.044 50.0242 24.8018C49.3982 25.4764 48.62 25.8133 47.6921 25.8133C46.69 25.8133 45.9694 25.4508 45.5318 24.7242V28.7533H43.8509V20.4846C43.8509 19.6643 43.8296 18.8233 43.7886 17.9606H45.2669L45.3607 19.1778H45.3923C45.9528 18.2607 46.8035 17.8022 47.9452 17.8022C48.8376 17.8022 49.5827 18.1599 50.1787 18.8761C50.774 19.5939 51.0728 20.5366 51.0728 21.7057ZM49.3604 21.7681C49.3604 21.0207 49.1948 20.4045 48.8621 19.9188C48.4986 19.4138 48.0106 19.161 47.3988 19.161C46.9841 19.161 46.6072 19.3018 46.2706 19.5795C45.9331 19.8596 45.7124 20.2253 45.6091 20.6782C45.563 20.8476 45.5368 21.0219 45.531 21.1976V22.4787C45.531 23.0365 45.6998 23.5078 46.0372 23.8935C46.3746 24.2776 46.813 24.4705 47.3523 24.4705C47.9854 24.4705 48.4781 24.2216 48.8306 23.7279C49.1838 23.2325 49.3604 22.5796 49.3604 21.7681ZM59.7746 21.7057C59.7746 23.0117 59.4253 24.044 58.726 24.8018C58.0992 25.4764 57.3218 25.8133 56.393 25.8133C55.391 25.8133 54.6704 25.4508 54.2328 24.7242V28.7533H52.5519V20.4846C52.5519 19.6643 52.5306 18.8233 52.4896 17.9606H53.9679L54.0617 19.1778H54.0932C54.653 18.2607 55.5037 17.8022 56.6461 17.8022C57.5378 17.8022 58.2829 18.1599 58.8805 18.8761C59.475 19.5939 59.7746 20.5366 59.7746 21.7057ZM58.0613 21.7681C58.0613 21.0207 57.895 20.4045 57.5623 19.9188C57.1988 19.4138 56.7124 19.161 56.1005 19.161C55.6858 19.161 55.309 19.3018 54.9707 19.5795C54.6333 19.8596 54.4133 20.2253 54.31 20.6782C54.2588 20.8895 54.2312 21.0615 54.2312 21.1976V22.4787C54.2312 23.0365 54.4007 23.5078 54.7366 23.8935C55.074 24.2768 55.5124 24.4705 56.0532 24.4705C56.6871 24.4705 57.1799 24.2216 57.5315 23.7279C57.8847 23.2325 58.0613 22.5796 58.0613 21.7681ZM69.5036 22.6524C69.5036 23.559 69.1914 24.2961 68.5709 24.865C67.8882 25.486 66.935 25.7973 65.7129 25.7973C64.5839 25.7973 63.6788 25.5764 62.996 25.1339L63.3847 23.7119C64.1219 24.1552 64.9316 24.3761 65.813 24.3761C66.4469 24.3761 66.9397 24.2304 67.2913 23.9415C67.6437 23.6519 67.8219 23.2646 67.8219 22.7812C67.8219 22.3483 67.6745 21.9858 67.3851 21.6905C67.0942 21.396 66.6133 21.1215 65.9376 20.8695C64.1006 20.1741 63.1813 19.157 63.1813 17.819C63.1813 16.9451 63.5061 16.2297 64.1542 15.6704C64.8023 15.1118 65.6617 14.8325 66.7308 14.8325C67.6855 14.8325 68.481 15.0014 69.1126 15.3383L68.6908 16.7291C68.0963 16.4026 67.4254 16.2393 66.6748 16.2393C66.0819 16.2393 65.6167 16.3874 65.284 16.6819C65.0041 16.9451 64.8622 17.266 64.8622 17.6469C64.8622 18.0671 65.0238 18.416 65.3455 18.6896C65.6246 18.9417 66.1339 19.2162 66.8703 19.5107C67.7738 19.8804 68.4377 20.3109 68.8626 20.8054C69.2907 21.3 69.5036 21.917 69.5036 22.6524ZM75.0754 19.241H73.2226V22.9693C73.2226 23.9175 73.549 24.3905 74.2034 24.3905C74.5038 24.3905 74.7529 24.3649 74.95 24.3113L74.9965 25.6068C74.6654 25.7325 74.2294 25.7957 73.6893 25.7957C73.0255 25.7957 72.5067 25.59 72.1322 25.1787C71.7593 24.7674 71.5716 24.0784 71.5716 23.1085V19.2378H70.4679V17.9574H71.5716V16.5514L73.2226 16.0457V17.9574H75.0754V19.241ZM83.4184 21.7369C83.4184 22.9173 83.0857 23.8863 82.4218 24.6442C81.7272 25.4244 80.8032 25.8133 79.6513 25.8133C78.5397 25.8133 77.6558 25.4396 76.9967 24.693C76.3376 23.9447 76.0081 23.0021 76.0081 21.865C76.0081 20.675 76.3487 19.7003 77.0275 18.9425C77.7079 18.1839 78.624 17.8046 79.7759 17.8046C80.886 17.8046 81.7777 18.1791 82.4526 18.9265C83.0975 19.6515 83.4184 20.5878 83.4184 21.7369ZM81.676 21.7761C81.676 21.0727 81.5262 20.4693 81.2258 19.9644C80.8734 19.3546 80.3688 19.0497 79.7152 19.0497C79.0419 19.0497 78.5255 19.3546 78.1738 19.9644C77.8727 20.4693 77.7229 21.0831 77.7229 21.8081C77.7229 22.5123 77.8727 23.1173 78.1738 23.6207C78.5373 24.2304 79.0443 24.5353 79.701 24.5353C80.3436 24.5353 80.8474 24.224 81.2116 23.6055C81.5207 23.0885 81.676 22.4811 81.676 21.7761ZM88.8845 19.4611C88.7097 19.429 88.5323 19.4132 88.3547 19.4138C87.7634 19.4138 87.3061 19.6395 86.9844 20.094C86.7053 20.4942 86.565 20.9999 86.565 21.6105V25.6396H84.8841V20.3789C84.8856 19.5728 84.8693 18.7668 84.8352 17.9614H86.2993L86.3608 19.4306H86.4073C86.5855 18.9257 86.8646 18.5184 87.2477 18.2135C87.5985 17.9471 88.0246 17.8028 88.4627 17.8022C88.618 17.8022 88.7583 17.8134 88.8829 17.8334L88.8845 19.4611ZM96.402 21.4368C96.4063 21.6962 96.3857 21.9553 96.3405 22.2106H91.2978C91.3167 22.9693 91.5612 23.5502 92.0295 23.9504C92.4544 24.3073 93.004 24.4865 93.6788 24.4865C94.4255 24.4865 95.1067 24.3665 95.7193 24.124L95.9826 25.3075C95.2667 25.6244 94.4215 25.7821 93.4463 25.7821C92.2731 25.7821 91.3522 25.4316 90.6821 24.7322C90.0135 24.032 89.6784 23.0909 89.6784 21.9122C89.6784 20.755 89.9898 19.7908 90.6135 19.0217C91.2663 18.2007 92.1485 17.7902 93.2586 17.7902C94.349 17.7902 95.1745 18.2007 95.735 19.0217C96.1789 19.6723 96.402 20.479 96.402 21.4368ZM94.7992 20.9943C94.811 20.4878 94.7006 20.0516 94.4728 19.6827C94.1819 19.2074 93.734 18.9705 93.134 18.9705C92.5845 18.9705 92.1367 19.2018 91.7961 19.6659C91.5162 20.0348 91.3499 20.4781 91.2986 20.9927L94.7992 20.9943Z" fill="white"/>
<path d="M35.7428 11.2241C35.2753 11.2241 34.8708 11.2009 34.5342 11.1617V6.01302C35.005 5.93919 35.4808 5.9028 35.9573 5.90419C37.8849 5.90419 38.7727 6.86686 38.7727 8.43612C38.7727 10.2462 37.7241 11.2241 35.7428 11.2241ZM36.0251 6.56438C35.7649 6.56438 35.5434 6.58038 35.3596 6.61879V10.5327C35.459 10.5487 35.6498 10.5559 35.9178 10.5559C37.1809 10.5559 37.8999 9.82612 37.8999 8.45932C37.8999 7.24057 37.2495 6.56438 36.0251 6.56438ZM41.5393 11.2633C40.4528 11.2633 39.7488 10.4399 39.7488 9.32197C39.7488 8.15684 40.4678 7.3262 41.6008 7.3262C42.6714 7.3262 43.3912 8.11042 43.3912 9.26035C43.3912 10.4399 42.6493 11.2633 41.5393 11.2633ZM41.5708 7.93917C40.974 7.93917 40.5916 8.50574 40.5916 9.29797C40.5916 10.075 40.9818 10.6416 41.5629 10.6416C42.144 10.6416 42.5342 10.0358 42.5342 9.28196C42.5342 8.51374 42.1519 7.93917 41.5708 7.93917ZM49.5866 7.40382L48.4237 11.1777H47.666L47.1843 9.53884C47.0645 9.13796 46.9648 8.73119 46.8855 8.32008H46.8697C46.809 8.7314 46.6939 9.14352 46.5717 9.53884L46.0593 11.1777H45.2937L44.1994 7.40382H45.0485L45.4695 9.19794C45.5689 9.62526 45.6524 10.0286 45.7218 10.4095H45.7376C45.7983 10.0918 45.8976 9.69488 46.0435 9.20594L46.5717 7.40462H47.245L47.7504 9.16753C47.8726 9.59485 47.9719 10.0142 48.0492 10.4103H48.0713C48.1249 10.0222 48.2093 9.61006 48.3236 9.16753L48.7753 7.40462L49.5866 7.40382ZM53.8677 11.1777H53.0415V9.01068C53.0415 8.34329 52.7892 8.00879 52.2917 8.00879C51.8021 8.00879 51.4654 8.43612 51.4654 8.93306V11.1777H50.6392V8.48253C50.6392 8.14883 50.6313 7.79113 50.6084 7.40302H51.3353L51.374 7.98559H51.3968C51.6192 7.58227 52.0701 7.3262 52.5755 7.3262C53.356 7.3262 53.8685 7.93197 53.8685 8.91786L53.8677 11.1777ZM56.1462 11.1777H55.3192V5.67212H56.1462V11.1777ZM59.1588 11.2633C58.0731 11.2633 57.3683 10.4399 57.3683 9.32197C57.3683 8.15684 58.0873 7.3262 59.2195 7.3262C60.291 7.3262 61.01 8.11042 61.01 9.26035C61.0108 10.4399 60.2681 11.2633 59.1588 11.2633ZM59.1895 7.93917C58.5927 7.93917 58.2103 8.50574 58.2103 9.29797C58.2103 10.075 58.6014 10.6416 59.1809 10.6416C59.7627 10.6416 60.1522 10.0358 60.1522 9.28196C60.153 8.51374 59.7714 7.93917 59.1895 7.93917ZM64.2677 11.1777L64.2078 10.7432H64.1857C63.9334 11.0929 63.5652 11.2633 63.0985 11.2633C62.4323 11.2633 61.9592 10.7896 61.9592 10.1526C61.9592 9.22114 62.7548 8.7394 64.1321 8.7394V8.66978C64.1321 8.17284 63.8727 7.92397 63.3603 7.92397C62.9936 7.92397 62.672 8.0176 62.3889 8.20405L62.221 7.65269C62.5647 7.43503 62.9936 7.3262 63.4974 7.3262C64.4688 7.3262 64.9592 7.84635 64.9592 8.88745V10.2774C64.9592 10.6584 64.9757 10.9536 65.0128 11.1785L64.2677 11.1777ZM64.1542 9.29797C63.2365 9.29797 62.776 9.52363 62.776 10.059C62.776 10.4551 63.0134 10.6488 63.3429 10.6488C63.7631 10.6488 64.1542 10.3231 64.1542 9.88053V9.29797ZM68.9714 11.1777L68.9328 10.5719H68.9099C68.6726 11.0297 68.2737 11.2633 67.7163 11.2633C66.8198 11.2633 66.156 10.4631 66.156 9.33718C66.156 8.15684 66.8443 7.3254 67.7841 7.3254C68.2816 7.3254 68.634 7.49585 68.8327 7.83834H68.8492V5.67212H69.6763V10.1606C69.6763 10.5255 69.6849 10.8672 69.707 11.1777H68.9714ZM68.8492 8.95707C68.8492 8.42892 68.5047 7.97839 67.9788 7.97839C67.3662 7.97839 66.9917 8.52974 66.9917 9.30597C66.9917 10.067 67.3804 10.5879 67.9622 10.5879C68.4818 10.5879 68.8492 10.1294 68.8492 9.58605V8.95707ZM74.92 11.2633C73.8344 11.2633 73.1303 10.4399 73.1303 9.32197C73.1303 8.15684 73.8494 7.3262 74.9815 7.3262C76.053 7.3262 76.772 8.11042 76.772 9.26035C76.7728 10.4399 76.0309 11.2633 74.92 11.2633ZM74.9508 7.93917C74.3547 7.93917 73.9723 8.50574 73.9723 9.29797C73.9723 10.075 74.3626 10.6416 74.9429 10.6416C75.5247 10.6416 75.9142 10.0358 75.9142 9.28196C75.9158 8.51374 75.5334 7.93917 74.9508 7.93917ZM81.2155 11.1777H80.3885V9.01068C80.3885 8.34329 80.1362 8.00879 79.6387 8.00879C79.1491 8.00879 78.8132 8.43612 78.8132 8.93306V11.1777H77.9862V8.48253C77.9862 8.14883 77.9783 7.79113 77.9554 7.40302H78.6823L78.721 7.98559H78.7438C78.9654 7.58227 79.4171 7.3254 79.9217 7.3254C80.7023 7.3254 81.2155 7.93117 81.2155 8.91706V11.1777ZM86.7747 8.0328H85.8656V9.86533C85.8656 10.3319 86.0249 10.5647 86.3465 10.5647C86.4924 10.5647 86.6146 10.5487 86.7132 10.5255L86.736 11.1625C86.576 11.2249 86.3615 11.2561 86.095 11.2561C85.4438 11.2561 85.0543 10.8912 85.0543 9.93575V8.0328H84.5119V7.40382H85.0543V6.71242L85.8656 6.46355V7.40302H86.7747V8.0328ZM91.1488 11.1777H90.3233V9.02669C90.3233 8.35129 90.0718 8.00959 89.5735 8.00959C89.1454 8.00959 88.7465 8.30488 88.7465 8.90265V11.1777H87.921V5.67212H88.7465V7.93917H88.763C89.0232 7.52785 89.4001 7.3254 89.881 7.3254C90.6678 7.3254 91.1488 7.94638 91.1488 8.93306V11.1777ZM95.6301 9.49242H93.1506C93.1663 10.207 93.6323 10.6103 94.3222 10.6103C94.6888 10.6103 95.0262 10.5479 95.3242 10.4319L95.4527 11.0145C95.1011 11.1697 94.6872 11.2473 94.2055 11.2473C93.0426 11.2473 92.3543 10.5015 92.3543 9.34518C92.3543 8.18805 93.0591 7.31819 94.1124 7.31819C95.0625 7.31819 95.6585 8.0328 95.6585 9.11231C95.6639 9.23971 95.6543 9.3673 95.6301 9.49242ZM94.8725 8.89465C94.8725 8.31208 94.5831 7.90076 94.0549 7.90076C93.5803 7.90076 93.205 8.32008 93.1514 8.89465H94.8725Z" fill="white"/>
<defs>
<linearGradient id="paint0_linear_2512_3580" x1="78.1188" y1="32.5148" x2="78.1188" y2="-82.8942" gradientUnits="userSpaceOnUse">
<stop stop-color="#1A1A1A" stop-opacity="0.1"/>
<stop offset="0.123" stop-color="#212121" stop-opacity="0.151"/>
<stop offset="0.308" stop-color="#353535" stop-opacity="0.227"/>
<stop offset="0.532" stop-color="#575757" stop-opacity="0.318"/>
<stop offset="0.783" stop-color="#858585" stop-opacity="0.421"/>
<stop offset="1" stop-color="#B3B3B3" stop-opacity="0.51"/>
</linearGradient>
</defs>
</svg>
