<svg width="106" height="33" viewBox="0 0 106 33" fill="none" xmlns="http://www.w3.org/2000/svg">
<g clip-path="url(#clip0_2512_3566)">
<path d="M101.983 32.0365H3.92244C1.72587 32.0365 0 30.2764 0 28.0364V4.03617C0 1.79615 1.72587 0.0361328 3.92244 0.0361328H101.983C104.18 0.0361328 105.906 1.79615 105.906 4.03617V28.0364C105.906 30.2764 104.18 32.0365 101.983 32.0365Z" fill="black"/>
<path d="M101.983 0.676139C103.788 0.676139 105.278 2.19615 105.278 4.03617V28.0364C105.278 29.8764 103.788 31.3965 101.983 31.3965H3.92244C2.11812 31.3965 0.62759 29.8764 0.62759 28.0364V4.03617C0.62759 2.19615 2.11812 0.676139 3.92244 0.676139H101.983ZM101.983 0.0361328H3.92244C1.72587 0.0361328 0 1.87615 0 4.03617V28.0364C0 30.2764 1.72587 32.0365 3.92244 32.0365H101.983C104.18 32.0365 105.906 30.2764 105.906 28.0364V4.03617C105.906 1.87615 104.18 0.0361328 101.983 0.0361328Z" fill="#A6A6A6"/>
<path d="M37.1845 8.1972C37.1845 8.83721 37.0276 9.39723 36.6354 9.79724C36.1647 10.2773 35.6155 10.5173 34.9095 10.5173C34.2034 10.5173 33.6543 10.2773 33.1836 9.79724C32.7129 9.31723 32.4775 8.75721 32.4775 8.03719C32.4775 7.31718 32.7129 6.75716 33.1836 6.27715C33.6543 5.79714 34.2034 5.55713 34.9095 5.55713C35.2233 5.55713 35.5371 5.63713 35.8509 5.79713C36.1647 5.95714 36.4 6.11714 36.5569 6.35715L36.1647 6.75716C35.8509 6.35715 35.4586 6.19715 34.9095 6.19715C34.4388 6.19715 33.9681 6.35715 33.6543 6.75716C33.262 7.07717 33.1051 7.55718 33.1051 8.1172C33.1051 8.67721 33.262 9.15722 33.6543 9.47723C34.0465 9.79724 34.4388 10.0372 34.9095 10.0372C35.4586 10.0372 35.8509 9.87724 36.2431 9.47723C36.4785 9.23723 36.6354 8.91722 36.6354 8.51721H34.9095V7.87719H37.1845V8.1972ZM40.7932 6.19715H38.6751V7.71719H40.6363V8.2772H38.6751V9.79724H40.7932V10.4373H38.0475V5.63713H40.7932V6.19715ZM43.3821 10.4373H42.7545V6.19715H41.4208V5.63713H44.7157V6.19715H43.3821V10.4373ZM46.9908 10.4373V5.63713H47.6184V10.4373H46.9908ZM50.2857 10.4373H49.6581V6.19715H48.3244V5.63713H51.5409V6.19715H50.2072V10.4373H50.2857ZM57.7385 9.79724C57.2677 10.2773 56.7186 10.5173 56.0126 10.5173C55.3065 10.5173 54.7573 10.2773 54.2866 9.79724C53.8159 9.31723 53.5806 8.75721 53.5806 8.03719C53.5806 7.31718 53.8159 6.75716 54.2866 6.27715C54.7573 5.79714 55.3065 5.55713 56.0126 5.55713C56.7186 5.55713 57.2677 5.79714 57.7385 6.27715C58.2092 6.75716 58.4445 7.31718 58.4445 8.03719C58.4445 8.75721 58.2092 9.31723 57.7385 9.79724ZM54.7574 9.39723C55.0712 9.71724 55.5419 9.95724 56.0126 9.95724C56.4833 9.95724 56.954 9.79724 57.2678 9.39723C57.5816 9.07722 57.8169 8.59721 57.8169 8.03719C57.8169 7.47718 57.66 6.99717 57.2678 6.67716C56.954 6.35715 56.4833 6.11714 56.0126 6.11714C55.5419 6.11714 55.0712 6.27715 54.7574 6.67716C54.4436 6.99717 54.2082 7.47718 54.2082 8.03719C54.2082 8.59721 54.3651 9.07722 54.7574 9.39723ZM59.3075 10.4373V5.63713H60.0135L62.2886 9.39723V5.63713H62.9162V10.4373H62.2886L59.8566 6.51715V10.4373H59.3075Z" fill="white" stroke="white" stroke-width="0.333337" stroke-miterlimit="10"/>
<path d="M53.4146 17.4761C51.5318 17.4761 50.0413 18.9161 50.0413 20.9161C50.0413 22.8362 51.5318 24.3562 53.4146 24.3562C55.2973 24.3562 56.7879 22.9162 56.7879 20.9161C56.7879 18.8361 55.2973 17.4761 53.4146 17.4761ZM53.4146 22.9162C52.3947 22.9162 51.5318 22.0361 51.5318 20.8361C51.5318 19.6361 52.3947 18.7561 53.4146 18.7561C54.4344 18.7561 55.2973 19.5561 55.2973 20.8361C55.2973 22.0361 54.4344 22.9162 53.4146 22.9162ZM46.1188 17.4761C44.2361 17.4761 42.7455 18.9161 42.7455 20.9161C42.7455 22.8362 44.2361 24.3562 46.1188 24.3562C48.0016 24.3562 49.4921 22.9162 49.4921 20.9161C49.4921 18.8361 48.0016 17.4761 46.1188 17.4761ZM46.1188 22.9162C45.099 22.9162 44.2361 22.0361 44.2361 20.8361C44.2361 19.6361 45.099 18.7561 46.1188 18.7561C47.1387 18.7561 48.0016 19.5561 48.0016 20.8361C48.0016 22.0361 47.1387 22.9162 46.1188 22.9162ZM37.411 18.5161V19.9561H40.7843C40.7059 20.7561 40.3921 21.3961 39.9998 21.7961C39.5291 22.2762 38.7447 22.8362 37.411 22.8362C35.2929 22.8362 33.7239 21.1561 33.7239 18.9961C33.7239 16.8361 35.3714 15.1561 37.411 15.1561C38.5093 15.1561 39.3722 15.6361 39.9998 16.1961L41.0197 15.1561C40.1567 14.3561 39.0584 13.7161 37.4895 13.7161C34.6653 13.7161 32.2334 16.1161 32.2334 18.9961C32.2334 21.8761 34.6653 24.2762 37.4895 24.2762C39.0584 24.2762 40.1567 23.7962 41.0981 22.7562C42.0395 21.7961 42.3533 20.4361 42.3533 19.3961C42.3533 19.0761 42.3533 18.7561 42.2748 18.5161H37.411ZM73.0268 19.6361C72.713 18.8361 71.9285 17.4761 70.2026 17.4761C68.4767 17.4761 67.0647 18.8361 67.0647 20.9161C67.0647 22.8362 68.4767 24.3562 70.3595 24.3562C71.85 24.3562 72.7914 23.3962 73.1052 22.8362L72.0069 22.0361C71.6147 22.5962 71.144 22.9962 70.3595 22.9962C69.575 22.9962 69.1043 22.6762 68.7121 21.9561L73.1837 20.0361L73.0268 19.6361ZM68.4767 20.7561C68.4767 19.4761 69.4966 18.7561 70.2026 18.7561C70.7518 18.7561 71.3009 19.0761 71.4578 19.4761L68.4767 20.7561ZM64.7896 24.0362H66.2802V14.0361H64.7896V24.0362ZM62.4362 18.1961C62.0439 17.7961 61.4164 17.3961 60.6319 17.3961C58.9844 17.3961 57.4155 18.9161 57.4155 20.8361C57.4155 22.7562 58.906 24.1962 60.6319 24.1962C61.4164 24.1962 62.0439 23.7962 62.3577 23.3962H62.4362V23.8762C62.4362 25.1562 61.7302 25.8762 60.6319 25.8762C59.7689 25.8762 59.1413 25.2362 58.9844 24.6762L57.7293 25.2362C58.1215 26.1162 59.0629 27.2362 60.7103 27.2362C62.4362 27.2362 63.8483 26.1962 63.8483 23.7162V17.6361H62.4362V18.1961ZM60.7103 22.9162C59.6905 22.9162 58.8275 22.0361 58.8275 20.8361C58.8275 19.6361 59.6905 18.7561 60.7103 18.7561C61.7302 18.7561 62.5146 19.6361 62.5146 20.8361C62.5146 22.0361 61.7302 22.9162 60.7103 22.9162ZM79.8518 14.0361H76.3216V24.0362H77.8122V20.2761H79.8518C81.4992 20.2761 83.0682 19.0761 83.0682 17.1561C83.0682 15.2361 81.4992 14.0361 79.8518 14.0361ZM79.9303 18.8361H77.8122V15.3961H79.9303C81.0286 15.3961 81.6561 16.3561 81.6561 17.0761C81.5777 17.9561 80.9501 18.8361 79.9303 18.8361ZM88.9519 17.3961C87.8536 17.3961 86.7553 17.8761 86.3631 18.9161L87.6967 19.4761C88.0105 18.9161 88.4812 18.7561 89.0303 18.7561C89.8148 18.7561 90.5209 19.2361 90.5993 20.0361V20.1161C90.364 19.9561 89.7364 19.7161 89.1088 19.7161C87.6967 19.7161 86.2846 20.5161 86.2846 21.9561C86.2846 23.3162 87.4614 24.1962 88.7165 24.1962C89.7364 24.1962 90.2071 23.7162 90.5993 23.2362H90.6778V24.0362H92.0898V20.1961C91.9329 18.4361 90.5993 17.3961 88.9519 17.3961ZM88.795 22.9162C88.3243 22.9162 87.6183 22.6762 87.6183 22.0361C87.6183 21.2361 88.4812 20.9961 89.1872 20.9961C89.8148 20.9961 90.1286 21.1561 90.5209 21.3161C90.364 22.2762 89.5795 22.9162 88.795 22.9162ZM97.0321 17.6361L95.3847 21.9561H95.3062L93.5804 17.6361H92.0114L94.6002 23.7162L93.1097 27.0762H94.6002L98.6011 17.6361H97.0321ZM83.8527 24.0362H85.3432V14.0361H83.8527V24.0362Z" fill="white"/>
<path d="M8.16732 6.03882C7.93197 6.27882 7.85352 6.67884 7.85352 7.15885V24.8393C7.85352 25.3193 8.01042 25.7193 8.24577 25.9593L8.32422 26.0393L18.052 16.1191V15.9591L8.16732 6.03882Z" fill="url(#paint0_linear_2512_3566)"/>
<path d="M21.1891 19.4795L17.9727 16.1995V15.9595L21.1891 12.6794L21.2675 12.7594L25.1115 14.9995C26.2098 15.6395 26.2098 16.6795 25.1115 17.3195L21.1891 19.4795Z" fill="url(#paint1_linear_2512_3566)"/>
<path d="M21.2645 19.399L17.9695 16.0388L8.16309 26.0392C8.55534 26.4393 9.1045 26.4393 9.81056 26.1192L21.2645 19.399Z" fill="url(#paint2_linear_2512_3566)"/>
<path d="M21.2645 12.6789L9.81056 6.03863C9.1045 5.63861 8.55534 5.71861 8.16309 6.11863L17.9695 16.039L21.2645 12.6789Z" fill="url(#paint3_linear_2512_3566)"/>
<path opacity="0.2" d="M21.186 19.3176L9.81056 25.8779C9.18295 26.2779 8.63379 26.1979 8.24154 25.8779L8.16309 25.9579L8.24154 26.0379C8.63379 26.3579 9.18295 26.4379 9.81056 26.0379L21.186 19.3176Z" fill="black"/>
<path opacity="0.12" d="M8.16732 25.8792C7.93197 25.6392 7.85352 25.2392 7.85352 24.7592V24.8392C7.85352 25.3192 8.01042 25.7192 8.24577 25.9592V25.8792H8.16732ZM25.1128 17.0789L21.1902 19.319L21.2687 19.399L25.1128 17.1589C25.662 16.8389 25.8973 16.4388 25.8973 16.0388C25.8973 16.4388 25.5835 16.7588 25.1128 17.0789Z" fill="black"/>
<path opacity="0.25" d="M9.8148 6.11715L25.1128 14.9975C25.5835 15.3175 25.8973 15.6375 25.8973 16.0376C25.8973 15.6375 25.662 15.2375 25.1128 14.9175L9.8148 6.03714C8.71648 5.39712 7.85352 5.87714 7.85352 7.15719V7.23719C7.85352 6.03714 8.71648 5.47712 9.8148 6.11715Z" fill="white"/>
</g>
<defs>
<linearGradient id="paint0_linear_2512_3566" x1="17.1106" y1="7.00684" x2="3.68646" y2="20.1698" gradientUnits="userSpaceOnUse">
<stop stop-color="#00A0FF"/>
<stop offset="0.007" stop-color="#00A1FF"/>
<stop offset="0.26" stop-color="#00BEFF"/>
<stop offset="0.512" stop-color="#00D2FF"/>
<stop offset="0.76" stop-color="#00DFFF"/>
<stop offset="1" stop-color="#00E3FF"/>
</linearGradient>
<linearGradient id="paint1_linear_2512_3566" x1="26.5502" y1="16.0403" x2="7.56799" y2="16.0403" gradientUnits="userSpaceOnUse">
<stop stop-color="#FFE000"/>
<stop offset="0.409" stop-color="#FFBD00"/>
<stop offset="0.775" stop-color="#FFA500"/>
<stop offset="1" stop-color="#FF9C00"/>
</linearGradient>
<linearGradient id="paint2_linear_2512_3566" x1="19.4813" y1="17.8757" x2="1.27758" y2="35.7262" gradientUnits="userSpaceOnUse">
<stop stop-color="#FF3A44"/>
<stop offset="1" stop-color="#C31162"/>
</linearGradient>
<linearGradient id="paint3_linear_2512_3566" x1="5.72874" y1="0.179179" x2="13.8579" y2="8.15066" gradientUnits="userSpaceOnUse">
<stop stop-color="#32A071"/>
<stop offset="0.069" stop-color="#2DA771"/>
<stop offset="0.476" stop-color="#15CF74"/>
<stop offset="0.801" stop-color="#06E775"/>
<stop offset="1" stop-color="#00F076"/>
</linearGradient>
<clipPath id="clip0_2512_3566">
<rect width="105.906" height="32.0003" fill="white" transform="translate(0 0.429443)"/>
</clipPath>
</defs>
</svg>
